<svg width="950" height="610.28138" xmlns="http://www.w3.org/2000/svg" data-name="Layer 1">
 <title>message sent</title>

 <g>
  <title>Layer 1</title>
  <path d="m673.37107,608.99156l-384.83376,0a47.58312,47.58312 0 0 1 -47.58312,-47.58312l0,-176.31175a18.85083,18.85083 0 0 1 5.88232,-13.68106l203.92382,-193.30281a43.88936,43.88936 0 0 1 60.38773,0l194.43057,184.30396a49.27354,49.27354 0 0 1 15.37558,35.76045l0,163.23121a47.58312,47.58312 0 0 1 -47.58314,47.58312z" fill="#3f3d56" id="svg_2"/>
  <path d="m240.95419,387.99156l476,0a0,0 0 0 1 0,0l0,192.26772a28.73228,28.73228 0 0 1 -28.73228,28.73228l-418.53544,0a28.73228,28.73228 0 0 1 -28.73228,-28.73228l0,-192.26772a0,0 0 0 1 0,0z" opacity="0.1" id="svg_3"/>
  <path d="m240.45419,376.49156" fill="none" stroke="#3f3d56" stroke-miterlimit="10" id="svg_4"/>
  <rect x="302.45419" y="237.49156" width="354" height="354" rx="26.1811" fill="#029f79" id="svg_5"/>
  <polygon points="657.454 395.942 657.454 590.492 303.454 590.492 303.454 395.942 480.454 481.492 657.454 395.942" opacity="0.1" id="svg_6"/>
  <path stroke="null" d="m478.45419,495.49156l-226.7938,-109.617a9.20185,9.20185 0 0 0 -13.2062,8.28487l0,188.59984a28.73228,28.73228 0 0 0 28.73228,28.73229l422.53544,0a28.73228,28.73228 0 0 0 28.73228,-28.73229l0,-185.369a11.22869,11.22869 0 0 0 -16.11507,-10.10975l-223.88493,108.21104z" fill="#3f3d56" id="svg_7"/>
  <rect x="333.95419" y="268.99156" width="99" height="14" fill="#f2f2f2" id="svg_8"/>
  <rect x="325.95419" y="319.99156" width="294" height="8" fill="#f2f2f2" id="svg_9"/>
  <rect x="325.95419" y="346.99156" width="294" height="8" fill="#f2f2f2" id="svg_10"/>
  <line stroke="#3f3d56" x1="20" y1="609.49156" x2="930" y2="609.49156" fill="none" stroke-miterlimit="10" id="svg_12"/>
  <path d="m0,485.35309c0,58.96027 36.98858,106.67017 82.69935,106.67017" fill="#46455b" id="svg_13"/>
  <path d="m82.69935,592.02326c0,-59.62274 41.2771,-107.86871 92.28767,-107.86871" fill="#029f79" id="svg_14"/>
  <path d="m29.96353,490.69794c0,56.006 23.58692,101.32532 52.73582,101.32532" fill="#029f79" id="svg_15"/>
  <path d="m65.30154,592.7753s11.72813,-0.36122 15.26269,-2.87813s18.04081,-5.52225 18.91765,-1.48567s17.6252,20.07611 4.3842,20.18291s-30.76619,-2.06249 -34.29395,-4.21139s-4.27059,-11.60772 -4.27059,-11.60772z" fill="#a8a8a8" id="svg_17"/>
  <path d="m104.10238,607.18926c-13.241,0.10684 -30.76618,-2.06247 -34.29395,-4.21138c-2.68658,-1.6365 -3.75715,-7.50866 -4.11536,-10.21785c-0.24807,0.01067 -0.39153,0.01526 -0.39153,0.01526s0.74283,9.45882 4.2706,11.60772s21.053,4.31822 34.29394,4.21138c3.82216,-0.03082 5.14239,-1.39069 5.0699,-3.40477c-0.53098,1.21686 -1.98872,1.97671 -4.8336,1.99964z" opacity="0.2" id="svg_18"/>
  <ellipse cx="317.95419" cy="242.06613" rx="41" ry="41.07457" fill="#fff" id="svg_35"/>
  <path d="m317.95419,193.99156a49,49 0 1 0 49,49a49.14406,49.14406 0 0 0 -49,-49zm-10.05913,75.12548l-25.1125,-25.11251l7.04374,-7.04374l18.09233,18.09231l38.187,-38.187l7.04375,7.04375l-45.25433,45.20721l0.00001,-0.00002z" fill="#57b894" id="svg_36"/>
  <rect fill="#3f3d56" x="345.72464" y="370.14069" width="254" height="26" id="svg_37"/>
  <text fill="#029f79" x="434.51147" y="395.86279" id="svg_38" stroke-width="0" font-size="24" font-family="Noto Sans JP" text-anchor="start" xml:space="preserve">**********</text>
 </g>
</svg>