<svg width="576" height="494" xmlns="http://www.w3.org/2000/svg" data-name="Layer 1">
 <g>
  <title>Layer 1</title>
  <path id="svg_1" fill="#f2f2f2" d="m169.42197,488.35038c9.25458,-7.82 14.87595,-20.17341 13.40175,-32.19951s-10.605,-23.08177 -22.44888,-25.63556s-25.34517,4.51552 -28.94256,16.08527c-1.97981,-22.306 -4.26119,-45.54663 -16.12049,-64.54228c-10.73831,-17.2001 -29.33726,-29.50744 -49.49431,-31.70921s-41.37985,6.11408 -53.95107,22.0238s-15.64923,39.03914 -6.84467,57.3048c6.486,13.45569 18.43551,23.46957 30.95562,31.61638a199.78578,199.78578 0 0 0 136.64075,29.89252"/>
  <path id="svg_2" fill="#fff" d="m31.79938,356.92414a326.87926,326.87926 0 0 1 45.55381,45.23486a327.83254,327.83254 0 0 1 51.30832,85.74145c0.92389,2.264 -2.75246,3.24952 -3.66608,1.0107a324.46215,324.46215 0 0 0 -29.64717,-56.09367a325.69973,325.69973 0 0 0 -66.23723,-73.20495c-1.898,-1.54556 0.806,-4.22115 2.68835,-2.68834l0,-0.00005z"/>
  <path id="svg_3" fill="#f2f2f2" d="m175.81425,488.35038c-9.25458,-7.82 -14.87595,-20.17341 -13.40175,-32.19951s10.605,-23.08177 22.44888,-25.63556s25.34518,4.51552 28.94256,16.08527c1.97982,-22.306 4.26119,-45.54663 16.1205,-64.54228c10.7383,-17.2001 29.33725,-29.50744 49.49431,-31.70921s41.37984,6.11408 53.95106,22.0238s15.64923,39.03914 6.84468,57.3048c-6.486,13.45569 -18.43552,23.46957 -30.95563,31.61638a199.78578,199.78578 0 0 1 -136.64075,29.89252"/>
  <path id="svg_4" fill="#fff" d="m313.43685,356.92414a326.87878,326.87878 0 0 0 -45.55382,45.23486a327.83254,327.83254 0 0 0 -51.30832,85.74145c-0.92389,2.264 2.75246,3.24952 3.66608,1.0107a325.98749,325.98749 0 0 1 95.8844,-129.29862c1.898,-1.54556 -0.806,-4.22115 -2.68834,-2.68834l0,-0.00005z"/>
  <circle id="svg_5" fill="#f2f2f2" r="31" cy="191" cx="203.27679"/>
  <path id="svg_6" fill="#f2f2f2" d="m107.69534,84.1377l213.58144,0l0,11.6853l-186.31586,0a83.41834,83.41834 0 0 0 -83.41857,83.41839l0,132.75861l-23.37049,0a3.89516,3.89516 0 0 1 -3.89508,-3.89508l0,-140.54883a83.41833,83.41833 0 0 1 83.41856,-83.41839z"/>
  <path id="svg_7" fill="#3f3d56" d="m148.77678,489l0,-177.5l52,0l0,177.5a4.50508,4.50508 0 0 1 -4.5,4.5l-43,0a4.50508,4.50508 0 0 1 -4.5,-4.5z"/>
  <path id="svg_8" fill="#3f3d56" d="m13.27678,308l0,-144.33447a86.76355,86.76355 0 0 1 86.66528,-86.66553l220.33472,0l0,236l-302,0a5.00573,5.00573 0 0 1 -5,-5zm305,-229l-218.33472,0a84.76141,84.76141 0 0 0 -84.66528,84.66553l0,144.33447a3.00328,3.00328 0 0 0 3,3l300,0l0,-232z"/>
  <path id="svg_9" fill="#029f79" d="m203.27678,207a18.02031,18.02031 0 0 1 -18,-18l0,-129a3.00328,3.00328 0 0 0 -3,-3l-70,0a5.0058,5.0058 0 0 1 -5,-5l0,-47a5.0058,5.0058 0 0 1 5,-5l104,0a5.00573,5.00573 0 0 1 5,5l0,184a18.02031,18.02031 0 0 1 -18,18z"/>
  <path id="svg_10" fill="#3f3d56" d="m328.27678,75l0,0a56.88093,56.88093 0 0 1 57,56.76144l0,164.30964l112,0a16.96465,16.96465 0 0 1 17,16.92887l-243,0l0,-181.23852a56.88093,56.88093 0 0 1 57,-56.76143z"/>
  <path id="svg_11" fill="#fff" d="m314.59873,168.56749l11.80284,48.75606l230.8812,-55.89155l-11.80284,-48.75606a3.6384,3.6384 0 0 0 -2.35767,-2.59508a3.59409,3.59409 0 0 0 -1.33406,-0.20075l-133.45919,-69.10192a3.682,3.682 0 0 0 -4.65628,1.11925l-64.31987,89.69375l-24.24794,33.82281a0.51379,0.51379 0 0 0 -0.089,0.41825a3.64176,3.64176 0 0 0 -0.41719,2.73524z"/>
  <path id="svg_12" fill="#3f3d56" d="m315.01594,165.83226a0.48973,0.48973 0 0 0 0.20314,0.31583a0.55943,0.55943 0 0 0 0.43331,0.08552a0.53586,0.53586 0 0 0 0.29889,-0.20727l0.08326,-0.11537l1.26254,-1.76554l22.92889,-31.96427l64.30082,-89.6732a2.6198,2.6198 0 0 1 3.32194,-0.79624l132.42537,68.56666l1.18838,0.6168a1.29216,1.29216 0 0 0 0.14733,0.05165a1.61549,1.61549 0 0 1 0.27147,-0.026a0.51364,0.51364 0 0 0 0.28983,-0.24474a0.524,0.524 0 0 0 -0.21883,-0.7087l-0.16408,-0.08726l-133.45919,-69.10194a3.682,3.682 0 0 0 -4.65628,1.11925l-64.31987,89.69375l-24.24794,33.82281a0.51379,0.51379 0 0 0 -0.08898,0.41826z"/>
  <path id="svg_13" fill="#3f3d56" d="m384.35688,170.80386l5.13934,0.57012l38.14252,4.22535l25.28583,2.79936l1.49358,0.166l31.55217,-24.64477l1.20883,-0.944l7.45235,-5.82019l26.5135,-20.70629l0.15919,-1.45441l9.43044,-85.11413a4.4539,4.4539 0 0 0 -3.92912,-4.91152l-125.85587,-13.94175a4.456,4.456 0 0 0 -4.91157,3.9292l-6.65043,60.03756l-3.689,33.28581l-3.3,29.77847l-1.52976,13.82919l-0.44637,4.00573a4.45691,4.45691 0 0 0 3.93437,4.91027z"/>
  <path id="svg_14" fill="#fff" d="m418.94198,96.19776l54.51668,6.03806l19.33354,2.14069a6.53968,6.53968 0 1 0 1.43979,-12.99988l-24.04683,-2.66322l-49.79941,-5.52188a6.54306,6.54306 0 0 0 -1.44377,13.00623z"/>
  <path id="svg_15" fill="#fff" d="m415.83797,120.31377c0.14068,0.02515 0.28136,0.05031 0.42455,0.06411l63.28515,7.0109l10.5663,1.17291a6.54214,6.54214 0 0 0 1.43855,-13.005l-15.27834,-1.69033l-50.13045,-5.5548l-8.43621,-0.93485a6.53913,6.53913 0 0 0 -1.86955,12.937l0,0.00006z"/>
  <path id="svg_16" fill="#fff" d="m408.67551,141.69759a6.53866,6.53866 0 0 0 4.88047,3.12537l25.9387,2.87281l46.19708,5.118l0.01018,-0.00247l1.47721,0.16462l7.45235,-5.82019a6.47057,6.47057 0 0 0 0.0011,-1.33a6.5548,6.5548 0 0 0 -5.78686,-5.82386l-6.41729,-0.713l-25.457,-2.81712l-18.31689,-2.0315l-23.66022,-2.62223a6.54,6.54 0 0 0 -6.31878,9.87953l-0.00005,0.00004z"/>
  <path id="svg_17" fill="#fff" d="m445.10844,66.71954l13.5644,1.50232l5.99124,0.66537l9.05013,1.00159a6.54214,6.54214 0 0 0 1.43855,-13.005l-28.59932,-3.16545a6.54059,6.54059 0 1 0 -1.445,13.00113l0,0.00004z"/>
  <path id="svg_18" fill="#029f79" d="m334.19334,102.9318l16.53736,68.3138l27.60123,5.24823l25.532,4.86089l27.39356,5.21238l8.753,1.6657a3.6733,3.6733 0 0 0 2.93957,-0.71161l7.02206,-5.48451l4.44605,-3.472l31.55217,-24.64477l-20.062,-82.87362a4.40272,4.40272 0 0 0 -1.24424,-2.15908a4.44864,4.44864 0 0 0 -4.12489,-1.11718l-123.06957,29.79264a4.45037,4.45037 0 0 0 -3.2763,5.36913z"/>
  <path id="svg_19" fill="#fff" d="m372.11371,157.27788a6.54613,6.54613 0 0 0 7.89577,4.818l72.2144,-17.48162a6.54974,6.54974 0 0 0 4.818,-7.89578a2.09959,2.09959 0 0 0 -0.0705,-0.24672a6.53879,6.53879 0 0 0 -7.82527,-4.5713l-72.2144,17.48161a6.54613,6.54613 0 0 0 -4.818,7.89581z"/>
  <path id="svg_20" fill="#fff" d="m378.33193,176.49383l25.532,4.86089l54.08456,-13.09272a6.54051,6.54051 0 1 0 -3.07775,-12.7138l-72.21439,17.48162a6.49388,6.49388 0 0 0 -3.74749,2.51147a6.5835,6.5835 0 0 0 -0.57693,0.95254z"/>
  <path id="svg_21" fill="#fff" d="m431.25749,186.5671l8.753,1.6657a3.6733,3.6733 0 0 0 2.93957,-0.71161l7.02206,-5.48451l-18.71463,4.53042z"/>
  <path id="svg_22" fill="#fff" d="m386.66446,120.64664a6.54611,6.54611 0 0 0 7.89577,4.818l27.97037,-6.77105a6.54973,6.54973 0 0 0 4.818,-7.89577a6.46594,6.46594 0 0 0 -1.20489,-2.48625a6.5454,6.5454 0 0 0 -6.69088,-2.33178l-27.97037,6.77105a6.54142,6.54142 0 0 0 -4.818,7.89577l0,0.00003z"/>
  <path id="svg_23" fill="#fff" d="m403.86186,181.35434l27.398,5.21358l8.75042,1.66643a3.68877,3.68877 0 0 0 2.938,-0.71124l7.02714,-5.48585l-2.46594,0.59695l-5.20559,4.061a2.63556,2.63556 0 0 1 -2.09887,0.5081l-6.47926,-1.23238l-27.398,-5.21357l-2.4659,0.59698zm81.83767,-28.539l0.26672,1.10181l1.21521,-0.9448l-1.48193,-0.15701zm-81.83767,28.539l27.398,5.21358l8.75042,1.66643a3.68877,3.68877 0 0 0 2.938,-0.71124l7.02714,-5.48585l-2.46594,0.59695l-5.20559,4.061a2.63556,2.63556 0 0 1 -2.09887,0.5081l-6.47926,-1.23238l-27.398,-5.21357l-2.4659,0.59698zm0,0l27.398,5.21358l8.75042,1.66643a3.68877,3.68877 0 0 0 2.938,-0.71124l7.02714,-5.48585l-2.46594,0.59695l-5.20559,4.061a2.63556,2.63556 0 0 1 -2.09887,0.5081l-6.47926,-1.23238l-27.398,-5.21357l-2.4659,0.59698zm-89.26313,-12.78685l30.916,127.71019a3.66655,3.66655 0 0 0 4.42206,2.69835l223.76079,-54.16788a3.6663,3.6663 0 0 0 2.69835,-4.42206l-30.916,-127.71018a3.6384,3.6384 0 0 0 -2.35767,-2.59508a3.59409,3.59409 0 0 0 -1.33406,-0.20075a3.45812,3.45812 0 0 0 -1.5141,0.3983a3.17906,3.17906 0 0 0 -0.60724,0.37708l-18.36413,14.33976l-26.67024,20.83345l-8.93478,6.97911l0.00182,0.00751l-0.00769,0.00186l-32.7657,25.578l-5.41664,4.23905l-5.20559,4.061a2.63556,2.63556 0 0 1 -2.09887,0.5081l-6.47926,-1.23238l-27.398,-5.21357l-27.42214,-5.21563l-60.06115,-11.42972a3.59025,3.59025 0 0 0 -1.54741,0.03342a3.66988,3.66988 0 0 0 -1.78823,1.03592a4.11057,4.11057 0 0 0 -0.49291,0.65091a3.64176,3.64176 0 0 0 -0.41721,2.73524zm89.26313,12.78685l27.398,5.21358l8.75042,1.66643a3.68877,3.68877 0 0 0 2.938,-0.71124l7.02714,-5.48585l-2.46594,0.59695l-5.20559,4.061a2.63556,2.63556 0 0 1 -2.09887,0.5081l-6.47926,-1.23238l-27.398,-5.21357l-2.4659,0.59698zm0,0l27.398,5.21358l8.75042,1.66643a3.68877,3.68877 0 0 0 2.938,-0.71124l7.02714,-5.48585l-2.46594,0.59695l-5.20559,4.061a2.63556,2.63556 0 0 1 -2.09887,0.5081l-6.47926,-1.23238l-27.398,-5.21357l-2.4659,0.59698zm0,0l27.398,5.21358l8.75042,1.66643a3.68877,3.68877 0 0 0 2.938,-0.71124l7.02714,-5.48585l-2.46594,0.59695l-5.20559,4.061a2.63556,2.63556 0 0 1 -2.09887,0.5081l-6.47926,-1.23238l-27.398,-5.21357l-2.4659,0.59698z"/>
  <path id="svg_24" fill="#3f3d56" d="m403.86186,181.35434l27.398,5.21358l8.75042,1.66643a3.68877,3.68877 0 0 0 2.938,-0.71124l7.02714,-5.48585l-2.46594,0.59695l-5.20559,4.061a2.63556,2.63556 0 0 1 -2.09887,0.5081l-6.47926,-1.23238l-27.398,-5.21357l-2.4659,0.59698zm81.83767,-28.539l0.26672,1.10181l1.21521,-0.9448l-1.48193,-0.15701zm-81.83767,28.539l27.398,5.21358l8.75042,1.66643a3.68877,3.68877 0 0 0 2.938,-0.71124l7.02714,-5.48585l-2.46594,0.59695l-5.20559,4.061a2.63556,2.63556 0 0 1 -2.09887,0.5081l-6.47926,-1.23238l-27.398,-5.21357l-2.4659,0.59698zm0,0l27.398,5.21358l8.75042,1.66643a3.68877,3.68877 0 0 0 2.938,-0.71124l7.02714,-5.48585l-2.46594,0.59695l-5.20559,4.061a2.63556,2.63556 0 0 1 -2.09887,0.5081l-6.47926,-1.23238l-27.398,-5.21357l-2.4659,0.59698zm-87.82732,-15.44334l0.13589,0.102c0.02275,-0.03727 0.06233,-0.07063 0.09239,-0.10968a2.64256,2.64256 0 0 1 2.38507,-0.76779l59.68567,11.354l25.5283,4.86479l27.398,5.21358l8.75042,1.66643a3.68877,3.68877 0 0 0 2.938,-0.71124l7.02714,-5.48585l-2.46594,0.59695l-5.20559,4.061a2.63556,2.63556 0 0 1 -2.09887,0.5081l-6.47926,-1.23238l-27.398,-5.21357l-27.42212,-5.21562l-60.06115,-11.42972a3.59025,3.59025 0 0 0 -1.54741,0.03342l-1.26254,1.76558zm-1.43581,2.65652l30.916,127.71019a3.66655,3.66655 0 0 0 4.42206,2.69835l223.76079,-54.16788a3.6663,3.6663 0 0 0 2.69835,-4.42206l-30.916,-127.71018a3.6384,3.6384 0 0 0 -2.35767,-2.59508a3.59409,3.59409 0 0 0 -1.33406,-0.20075a3.45812,3.45812 0 0 0 -1.5141,0.3983a3.17906,3.17906 0 0 0 -0.60724,0.37708l-18.36413,14.33976l-26.67024,20.83345l-8.93478,6.97911l0.00182,0.00751l-0.00769,0.00186l-32.7657,25.578l-5.41664,4.23905l-5.20559,4.061a2.63556,2.63556 0 0 1 -2.09887,0.5081l-6.47926,-1.23238l-27.398,-5.21357l-27.42214,-5.21566l-60.06115,-11.42972a3.59025,3.59025 0 0 0 -1.54741,0.03342a3.66988,3.66988 0 0 0 -1.78823,1.03592a4.11057,4.11057 0 0 0 -0.49291,0.65091a3.64176,3.64176 0 0 0 -0.41721,2.73524l0,0.00003zm1.0196,-0.24682a2.59762,2.59762 0 0 1 0.46152,-2.19054a0.34094,0.34094 0 0 1 0.09058,-0.11714c0.02275,-0.03727 0.06233,-0.07063 0.09239,-0.10968a2.64256,2.64256 0 0 1 2.38507,-0.76779l59.68567,11.354l25.5283,4.86479l27.398,5.21358l8.75042,1.66643a3.68877,3.68877 0 0 0 2.938,-0.71124l7.02714,-5.48585l4.44395,-3.47195l31.54686,-24.64821l1.21521,-0.9448l7.44662,-5.81748l26.5182,-20.70938l19.17121,-14.97157a2.60368,2.60368 0 0 1 0.98714,-0.477a1.99722,1.99722 0 0 1 0.30518,-0.05006a1.61549,1.61549 0 0 1 0.27147,-0.026a2.67893,2.67893 0 0 1 0.90068,0.14691a2.625,2.625 0 0 1 1.68605,1.85318l30.916,127.71019a2.61952,2.61952 0 0 1 -1.93138,3.16522l-223.76077,54.16785a2.61809,2.61809 0 0 1 -3.1575,-1.93331l-30.91601,-127.71015zm88.24353,13.03367l27.398,5.21358l8.75042,1.66643a3.68877,3.68877 0 0 0 2.938,-0.71124l7.02714,-5.48585l-2.46594,0.59695l-5.20559,4.061a2.63556,2.63556 0 0 1 -2.09887,0.5081l-6.47926,-1.23238l-27.398,-5.21357l-2.4659,0.59698zm0,0l27.398,5.21358l8.75042,1.66643a3.68877,3.68877 0 0 0 2.938,-0.71124l7.02714,-5.48585l-2.46594,0.59695l-5.20559,4.061a2.63556,2.63556 0 0 1 -2.09887,0.5081l-6.47926,-1.23238l-27.398,-5.21357l-2.4659,0.59698zm0,0l27.398,5.21358l8.75042,1.66643a3.68877,3.68877 0 0 0 2.938,-0.71124l7.02714,-5.48585l-2.46594,0.59695l-5.20559,4.061a2.63556,2.63556 0 0 1 -2.09887,0.5081l-6.47926,-1.23238l-27.398,-5.21357l-2.4659,0.59698z"/>
  <path id="svg_25" fill="#029f79" d="m515.37874,219.71742a8.12818,8.12818 0 0 1 5.98077,-9.80128l28.24156,-6.8367a8.119,8.119 0 0 1 3.82051,15.78205l-28.24156,6.8367a8.12818,8.12818 0 0 1 -9.80128,-5.98077z"/>
  <circle id="svg_26" fill="#fff" r="7" cy="189" cx="203.27679"/>
 </g>

</svg>