<svg width="750" height="500" xmlns="http://www.w3.org/2000/svg">

 <g>
  <title>Layer 1</title>
  <g id="freepik--background-complete--inject-63">
   <rect id="svg_1" fill="#fff" height="214.01" width="97.9" y="61.3" x="86.2"/>
   <path id="svg_2" fill="#ebebeb" d="m190.1,281.31l-109.9,0l0,-226.01l109.9,0l0,226.01zm-97.9,-12l85.9,0l0,-202.01l-85.9,0l0,202.01z"/>
   <rect id="svg_3" fill="#ebebeb" height="6.06" width="97.9" y="164.93" x="86.2"/>
   <rect id="svg_4" fill="#ebebeb" height="6.06" width="97.9" y="119.75" x="86.2"/>
   <rect id="svg_5" transform="rotate(-90 38.4 277.9)" fill="#ebebeb" height="5.5" width="93.94" y="394.89999" x="149.58"/>
   <rect id="svg_6" transform="rotate(-90 15.4 254.9)" fill="#ebebeb" height="5.5" width="93.94" y="371.89999" x="103.58"/>
   <rect id="svg_7" transform="rotate(-90 -7.6 231.9)" fill="#ebebeb" height="5.5" width="93.94" y="348.89999" x="57.58"/>
   <rect id="svg_8" fill="#ebebeb" height="21.94" width="120.18" y="54.31" x="75.06"/>
   <rect id="svg_9" fill="#dbdbdb" height="15.3" width="120.18" y="54.31" x="75.06"/>
   <rect id="svg_10" fill="#ebebeb" height="21.94" width="135.31" y="43.33" x="67.49"/>
   <rect id="svg_11" fill="#fff" height="214.01" width="97.9" y="61.3" x="272.16"/>
   <path id="svg_12" fill="#ebebeb" d="m376.07,281.31l-109.9,0l0,-226.01l109.9,0l0,226.01zm-97.9,-12l85.9,0l0,-202.01l-85.9,0l0,202.01z"/>
   <rect id="svg_13" fill="#ebebeb" height="6.06" width="97.9" y="164.93" x="272.16"/>
   <rect id="svg_14" fill="#ebebeb" height="6.06" width="97.9" y="119.75" x="272.16"/>
   <rect id="svg_15" transform="rotate(-90 224.37 463.86)" fill="#ebebeb" height="5.5" width="93.94" y="580.85999" x="521.52"/>
   <rect id="svg_16" transform="rotate(-90 201.37 440.86)" fill="#ebebeb" height="5.5" width="93.94" y="557.85999" x="475.52"/>
   <rect id="svg_17" transform="rotate(-90 178.37 417.86)" fill="#ebebeb" height="5.5" width="93.94" y="534.85999" x="429.52"/>
   <rect id="svg_18" fill="#ebebeb" height="21.94" width="120.18" y="54.31" x="261.03"/>
   <rect id="svg_19" fill="#dbdbdb" height="15.3" width="120.18" y="54.31" x="261.03"/>
   <rect id="svg_20" fill="#ebebeb" height="21.94" width="135.31" y="43.33" x="253.46"/>
   <path id="svg_21" fill="#ebebeb" d="m414.79,347.7l13.36,-0.28l6.58,-0.11c2.19,-0.05 4.36,0 6.54,-0.06l-0.44,0.45l-0.06,-11.19l0.5,0.5l-13.27,-0.01c-4.41,0 -8.82,-0.12 -13.24,-0.17l0.28,-0.27c0,1.83 -0.09,3.67 -0.14,5.54l-0.11,5.6zm0,0l-0.14,-5.54c0,-1.86 -0.11,-3.75 -0.13,-5.65l0,-0.27l0.27,0c4.42,-0.05 8.83,-0.16 13.24,-0.17l13.24,-0.06l0.5,0l0,0.5l0,11.19l0,0.45l-0.45,0c-2.23,0 -4.47,0 -6.69,-0.06l-6.66,-0.11l-13.18,-0.28z"/>
   <path id="svg_22" fill="#ebebeb" d="m429.56,361.81l13.36,-0.28l6.58,-0.11c2.19,-0.05 4.36,0 6.54,-0.06l-0.44,0.45l-0.05,-11.19l0.49,0.5l-13.24,-0.06c-4.41,0 -8.82,-0.12 -13.24,-0.17l0.28,-0.27c0,1.83 -0.09,3.67 -0.13,5.54l-0.15,5.65zm0,0l-0.14,-5.54c0,-1.86 -0.11,-3.75 -0.13,-5.65l0,-0.27l0.27,0c4.42,-0.05 8.83,-0.16 13.24,-0.17l13.24,-0.06l0.51,0l0,0.5l-0.05,11.19l0,0.45l-0.5,0c-2.23,0 -4.46,0 -6.69,-0.06l-6.66,-0.11l-13.09,-0.28z"/>
   <path id="svg_23" fill="#ebebeb" d="m400,361.81l13.36,-0.28l6.58,-0.11c2.18,-0.05 4.36,0 6.54,-0.06l-0.44,0.45l-0.04,-11.19l0.5,0.5l-13.24,-0.06c-4.41,0 -8.83,-0.12 -13.24,-0.17l0.27,-0.27c0,1.83 -0.08,3.67 -0.13,5.54l-0.16,5.65zm0,0l-0.14,-5.54c-0.05,-1.86 -0.11,-3.75 -0.13,-5.65l0,-0.27l0.27,0c4.41,-0.05 8.83,-0.16 13.24,-0.17l13.24,-0.06l0.5,0l0,0.5l0.02,11.19l0,0.45l-0.44,0c-2.23,0 -4.47,0 -6.69,-0.06l-6.66,-0.11l-13.21,-0.28z"/>
   <path id="svg_24" fill="#ebebeb" d="m58.73,361.81l13.35,-0.28l6.58,-0.11c2.19,-0.05 4.37,0 6.55,-0.06l-0.45,0.45l-0.05,-11.19l0.5,0.5l-13.21,-0.06c-4.42,0 -8.83,-0.12 -13.24,-0.17l0.27,-0.27c0,1.83 -0.09,3.67 -0.13,5.54l-0.17,5.65zm0,0l-0.15,-5.54c0,-1.86 -0.11,-3.75 -0.13,-5.65l0,-0.27l0.28,0c4.41,-0.05 8.82,-0.16 13.24,-0.17l13.24,-0.06l0.5,0l0,0.5l-0.06,11.19l0,0.45l-0.44,0c-2.23,0 -4.47,0 -6.7,-0.06l-6.66,-0.11l-13.12,-0.28z"/>
   <path id="svg_25" fill="#ebebeb" d="m58.73,59.86l13.35,-0.28l6.58,-0.12c2.19,0 4.37,0 6.55,-0.05l-0.45,0.44l-0.05,-11.18l0.5,0.49l-13.21,-0.06c-4.42,0 -8.83,-0.11 -13.24,-0.16l0.27,-0.27c0,1.83 -0.09,3.67 -0.13,5.53l-0.17,5.66zm0,0l-0.15,-5.54c0,-1.87 -0.11,-3.76 -0.13,-5.65l0,-0.27l0.28,0c4.41,0 8.82,-0.16 13.24,-0.16l13.24,-0.06l0.5,0l0,0.51l-0.06,11.18l0,0.45l-0.44,0c-2.23,0 -4.47,0 -6.7,0l-6.66,-0.12l-13.12,-0.34z"/>
   <path id="svg_26" fill="#ebebeb" d="m44,74l13.35,-0.27l6.58,-0.12c2.19,0 4.36,0 6.55,0l-0.48,0.39l0,-11.18l0.5,0.49l-13.3,-0.1c-4.42,0 -8.83,-0.11 -13.24,-0.16l0.27,-0.27c0,1.83 -0.09,3.67 -0.13,5.53l-0.1,5.69zm0,0l-0.15,-5.53c0,-1.87 -0.11,-3.76 -0.13,-5.65l0,-0.27l0.28,0c4.41,0 8.82,-0.16 13.24,-0.16l13.24,-0.06l0.5,0l0,0.51l-0.1,11.16l0,0.45l-0.44,0c-2.24,0 -4.47,0 -6.7,0l-6.66,-0.12l-13.08,-0.33z"/>
   <path id="svg_27" fill="#ebebeb" d="m429.56,59.87l13.36,-0.28l6.58,-0.11c2.19,0 4.36,0 6.54,-0.06l-0.44,0.45l-0.05,-11.19l0.49,0.5l-13.24,-0.07c-4.41,0 -8.82,-0.11 -13.24,-0.16l0.28,-0.27c0,1.83 -0.09,3.67 -0.13,5.53l-0.15,5.66zm0,0l-0.14,-5.54c0,-1.87 -0.11,-3.75 -0.13,-5.65l0,-0.27l0.27,0c4.42,0 8.83,-0.15 13.24,-0.16l13.2,-0.07l0.51,0l0,0.5l-0.05,11.19l0,0.45l-0.46,0c-2.23,0 -4.46,0 -6.69,-0.05l-6.66,-0.11l-13.09,-0.29z"/>
   <path id="svg_28" fill="#ebebeb" d="m256.8,181.82l-13.36,0.28l-6.58,0.11c-2.19,0 -4.36,0 -6.55,0l0.45,-0.44l0.05,11.19l-0.5,-0.5l13.25,0.06c4.41,0 8.82,0.11 13.24,0.16l-0.28,0.28c0,-1.83 0.09,-3.68 0.13,-5.54l0.15,-5.6zm0,0l0.14,5.53c0,1.87 0.11,3.76 0.13,5.66l0,0.27l-0.27,0c-4.42,0.05 -8.83,0.16 -13.24,0.16l-13.25,0.07l-0.5,0l0,-0.51l0.05,-11.19l0,-0.45l0.44,0c2.24,0 4.47,0 6.7,0.06l6.66,0.11l13.14,0.29z"/>
   <path id="svg_29" fill="#ebebeb" d="m242,167.71l-13.35,0.28l-6.58,0.11c-2.19,0.05 -4.37,0 -6.55,0.05l0.45,-0.44l0,11.19l-0.5,-0.5l13.24,0.06c4.42,0 8.83,0.11 13.24,0.16l-0.27,0.28c0,-1.83 0.09,-3.68 0.13,-5.54l0.19,-5.65zm0,0l0.15,5.53c0,1.87 0.11,3.76 0.13,5.66l0,0.27l-0.28,0c-4.41,0.05 -8.82,0.16 -13.24,0.16l-13.24,0.07l-0.52,0l0,-0.5l0.06,-11.19l0,-0.45l0.44,0c2.23,0 4.47,0 6.7,0.06l6.66,0.11l13.14,0.28z"/>
  </g>
  <g id="freepik--Shadow--inject-63">
   <ellipse id="svg_30" fill="#ebebeb" ry="23.78" rx="238.65" cy="458.6" cx="290.29"/>
  </g>
  <g id="freepik--Floor--inject-63">
   <polygon id="svg_31" fill="#263238" points="54.73 432.79 134.79 432.55 214.86 432.46 375 432.3 535.14 432.46 615.21 432.55 695.27 432.79 615.21 433.04 535.14 433.13 375 433.29 214.86 433.13 134.79 433.04 54.73 432.79"/>
  </g>
  <g id="freepik--Plants--inject-63">
   <polygon id="svg_32" fill="#dbdbdb" points="461.3 186.88 438.86 66.37 418.12 186.87 417.13 186.7 438.82 60.7 462.28 186.69 461.3 186.88"/>
   <polygon id="svg_33" fill="#dbdbdb" points="455.3 286.45 439.1 226.97 424.12 286.44 423.15 286.2 439.06 223.03 456.26 286.19 455.3 286.45"/>
   <path id="svg_34" fill="#a6a6a6" d="m440.9,62.58a2.06,2.06 0 1 1 -2.06,-2.06a2.05,2.05 0 0 1 2.06,2.06z"/>
   <polygon id="svg_35" fill="#FCD34D" points="457.89 284.43 457.26 292.79 455.75 312.7 423.67 312.7 422.16 292.79 421.52 284.43 457.89 284.43"/>
   <polygon id="svg_36" opacity="0.1" points="457.89 284.43 457.26 292.79 422.16 292.79 421.52 284.43 457.89 284.43"/>
   <rect id="svg_37" fill="#FCD34D" height="6.49" width="40.77" y="281.75" x="419.32"/>
   <path id="svg_38" fill="#37474f" d="m461.2,280.41a2,2 0 0 1 -2.2,1.79a2.07,2.07 0 0 1 -2.33,0.68a2.38,2.38 0 0 1 -2.34,1.38a2.39,2.39 0 0 1 -1.39,2.89a1.48,1.48 0 0 1 -1.53,1.05a2.44,2.44 0 0 1 -1.8,-1.26a1.86,1.86 0 0 1 -2.74,0.25a1.51,1.51 0 0 1 -0.33,-1.66a1.56,1.56 0 0 1 -0.36,-0.23a2.35,2.35 0 0 1 -0.64,-2a2.22,2.22 0 0 1 -1.66,0a1.29,1.29 0 0 1 -1.16,1a2.25,2.25 0 0 1 -0.38,2a2.39,2.39 0 0 1 -2.09,0.79c0.23,1.1 0.28,2.34 -0.71,3.07a1.6,1.6 0 0 1 -1.64,0.16a2.08,2.08 0 0 1 -2.57,1.62a2.69,2.69 0 0 1 -0.25,2a1.81,1.81 0 0 1 -1.37,0.89c0,1.07 -0.46,2.23 -1.71,2.21a1.26,1.26 0 0 1 -1.19,-1.52a1.59,1.59 0 0 1 -0.81,-2.63a2.3,2.3 0 0 1 0,-3.61a1.51,1.51 0 0 1 0.06,-2.21a2.05,2.05 0 0 1 -0.73,-1.6a2.23,2.23 0 0 1 1.16,-1.79a1,1 0 0 1 -0.56,-0.56a0.86,0.86 0 0 1 0,-0.17a1.47,1.47 0 0 1 -1.18,0a1.29,1.29 0 0 1 -0.59,-0.54a2.44,2.44 0 0 1 -2.34,0.58a2,2 0 0 1 -3,0.61c-0.73,0.66 -1.74,1.3 -2.7,0.7a1.2,1.2 0 0 1 -0.54,-1.08a1.35,1.35 0 0 1 -1.22,-0.72a1.27,1.27 0 0 1 0.34,-1.55a1.19,1.19 0 0 1 -0.46,-0.69a1.41,1.41 0 0 1 1.37,-1.57a2,2 0 0 1 0.38,-2a2.83,2.83 0 0 1 2.29,-0.82a2.48,2.48 0 0 1 1.22,-2.57a2,2 0 0 1 2.48,0.6a3.23,3.23 0 0 1 5.12,-0.33a1.6,1.6 0 0 1 2,-0.81a2.62,2.62 0 0 1 1.51,2.62a3.13,3.13 0 0 1 3.19,0.25a3.19,3.19 0 0 1 1.23,2.65a2.84,2.84 0 0 1 3,0.18a6.22,6.22 0 0 1 3.18,-2.43a3,3 0 0 1 2.6,0.55a3.56,3.56 0 0 1 6.48,-0.82a2.51,2.51 0 0 1 2.64,-0.34a4.74,4.74 0 0 1 2.32,3a1.93,1.93 0 0 1 1.95,1.99z"/>
   <polygon id="svg_39" fill="#FCD34D" points="464.01 187.22 463.16 198.4 461.14 225 418.28 225 416.26 198.4 415.4 187.22 464.01 187.22"/>
   <polygon id="svg_40" opacity="0.1" points="464.01 187.22 463.16 198.4 416.26 198.4 415.4 187.22 464.01 187.22"/>
   <rect id="svg_41" fill="#FCD34D" height="8.68" width="54.49" y="183.64" x="412.47"/>
   <path id="svg_42" fill="#37474f" d="m465.71,185.83a3.17,3.17 0 0 1 0.66,3a5.78,5.78 0 0 1 -3.33,3a3.56,3.56 0 0 1 -1.19,5.23c1.3,1.52 1.83,3.25 0.15,4.37a3.91,3.91 0 0 1 -1.18,5.56c0.37,1.2 -0.79,4.79 -3.25,4.79a2.6,2.6 0 0 1 -2.26,-3.85a3,3 0 0 1 -0.7,-4.81s-1.52,0.32 -2.25,-0.45a2.08,2.08 0 0 1 -0.12,-2.05a3.48,3.48 0 0 1 0.79,-5.08a2.87,2.87 0 0 1 0,-4.3a4,4 0 0 1 -1.69,-1.45c-1.25,0.6 -2,0.07 -2.68,-1.1a2.9,2.9 0 0 1 -3.11,0.82a3.42,3.42 0 0 1 -5,2a4.76,4.76 0 0 1 -0.94,2.55a8.37,8.37 0 0 1 -0.57,0.62a4.81,4.81 0 0 0 -0.55,0.9a4,4 0 0 1 -1.13,1.3a2.12,2.12 0 0 1 -2.83,-0.12a1.64,1.64 0 0 1 -0.26,-1.68a2.18,2.18 0 0 1 -1.36,-2.76a2.65,2.65 0 0 1 -2.61,-1.51a2.8,2.8 0 0 1 -2.14,1.07a3.15,3.15 0 0 1 -1.79,4a3.24,3.24 0 0 1 -1.39,4.61a2.27,2.27 0 0 1 -0.66,3a3,3 0 0 1 -0.11,2.61a1.9,1.9 0 0 1 -1.77,0.84a1.39,1.39 0 0 1 -0.84,-2.08a3.51,3.51 0 0 1 -1.27,-5.78a2.86,2.86 0 0 1 -1.68,-4.36a3,3 0 0 1 -2.25,-2.28a2.9,2.9 0 0 1 0.62,-2.31a1.71,1.71 0 0 1 -1.56,-0.58a1.54,1.54 0 0 1 -0.32,-1a2.21,2.21 0 0 1 -2.39,-1a2.16,2.16 0 0 1 0.44,-2.52a1.84,1.84 0 0 1 -1.23,-1.32a1.74,1.74 0 0 1 0.14,-1.11a2.13,2.13 0 0 1 -2.55,-1.79a1.73,1.73 0 0 1 1.16,-1.81a2.18,2.18 0 0 1 -0.16,-1.39c0.32,-1.32 1.85,-1.73 3.06,-1.88a2.72,2.72 0 0 1 3,-3.56a2.81,2.81 0 0 1 1.3,-2.61a2.65,2.65 0 0 1 2.94,0.23l0.08,0a3.31,3.31 0 0 1 2.8,3.21a3.41,3.41 0 0 1 3.24,0a4.79,4.79 0 0 1 2.24,3.3a3.86,3.86 0 0 1 6.2,0.8a3.54,3.54 0 0 1 6.11,2a8.78,8.78 0 0 1 8.24,-1.62a3.87,3.87 0 0 1 5.84,-1.85a3.87,3.87 0 0 1 4,-2.36a5.81,5.81 0 0 1 4.37,3.62a3.93,3.93 0 0 1 3.45,5.17a2.86,2.86 0 0 1 -1.71,3.77z"/>
  </g>
  <g id="freepik--character-2--inject-63">
   <rect id="svg_43" fill="#c7c7c7" height="374.34" width="161.7" y="58.45" x="501.57"/>
   <rect id="svg_44" fill="#a6a6a6" height="40.78" width="161.7" y="392.01" x="501.57"/>
   <rect id="svg_45" fill="#dbdbdb" height="374.34" width="8.47" y="58.45" x="501.57"/>
   <polygon id="svg_46" fill="#ebebeb" points="602.07 413.38 510.04 432.79 510.04 58.45 602.07 85.81 602.07 413.38"/>
   <path id="svg_47" fill="#a6a6a6" d="m522.69,319.61c0.1,3.53 0.16,7.07 0.23,10.61s0.12,7.08 0.16,10.61q0.15,10.62 0.2,21.23c0.05,7.08 0,14.16 0.05,21.24s0,14.17 -0.07,21.26l-0.55,-0.88q5.52,-0.85 11,-1.6l5.53,-0.69c1.84,-0.23 3.68,-0.45 5.52,-0.62c-1.84,0.47 -3.68,0.89 -5.52,1.32l-5.53,1.25q-5.52,1.21 -11,2.29l-0.55,0.11l0,-1c0,-7.08 -0.06,-14.17 -0.08,-21.26s0,-14.19 0.06,-21.29s0.09,-14.2 0.18,-21.3q0.06,-5.32 0.17,-10.65c0.05,-3.54 0.11,-7.08 0.2,-10.63z"/>
   <path id="svg_48" fill="#a6a6a6" d="m550.5,392c-0.1,-3.91 -0.16,-7.83 -0.22,-11.75s-0.13,-7.83 -0.17,-11.76q-0.14,-11.76 -0.2,-23.54c-0.06,-7.86 0,-15.71 -0.08,-23.57s0,-15.72 0.06,-23.58l0.57,0.94q-6.87,0.13 -13.73,0.11q-3.42,0 -6.86,-0.08c-2.28,0 -4.57,-0.07 -6.86,-0.16c2.29,-0.23 4.58,-0.41 6.86,-0.58s4.58,-0.35 6.86,-0.48q6.87,-0.44 13.73,-0.72l0.56,0l0,1c0.06,7.84 0.06,15.69 0.08,23.53s0,15.69 -0.05,23.54s-0.09,15.7 -0.18,23.55q-0.06,5.89 -0.16,11.8c-0.06,3.88 -0.12,7.82 -0.21,11.75z"/>
   <path id="svg_49" fill="#a6a6a6" d="m561.5,317.33c0.1,3.34 0.16,6.69 0.23,10s0.13,6.7 0.17,10.05q0.15,10 0.2,20.09c0.06,6.69 0,13.39 0.07,20.09s0,13.41 -0.06,20.12l-0.56,-0.82c3.69,-0.58 7.37,-1.13 11.06,-1.62l5.52,-0.71c1.84,-0.23 3.69,-0.46 5.53,-0.64c-1.84,0.47 -3.68,0.89 -5.53,1.3l-5.52,1.24q-5.54,1.2 -11.06,2.27l-0.55,0.11l0,-0.93q-0.09,-10.07 -0.09,-20.13c0,-6.72 0,-13.43 0,-20.15s0.09,-13.44 0.18,-20.16q0.06,-5 0.16,-10.08c0.1,-3.36 0.16,-6.67 0.25,-10.03z"/>
   <path id="svg_50" fill="#a6a6a6" d="m589.34,385.6c-0.1,-3.69 -0.16,-7.39 -0.22,-11.09s-0.14,-7.39 -0.18,-11.1q-0.15,-11.1 -0.21,-22.23c-0.06,-7.42 -0.06,-14.84 -0.09,-22.26s0,-14.84 0.05,-22.26l0.56,0.88q-6.86,0.13 -13.72,0.12c-2.28,0 -4.57,0 -6.86,-0.06s-4.57,-0.06 -6.86,-0.14c2.29,-0.22 4.58,-0.39 6.86,-0.56s4.58,-0.34 6.86,-0.47c4.58,-0.27 9.15,-0.51 13.72,-0.69l0.56,0l0,0.91c0.06,7.41 0.06,14.82 0.09,22.22s0,14.81 0,22.23s-0.09,14.82 -0.17,22.24c0,3.71 -0.09,7.43 -0.15,11.14s-0.15,7.4 -0.24,11.12z"/>
   <path id="svg_51" fill="#a6a6a6" d="m522.67,151c0.1,3.56 0.16,7.11 0.22,10.66s0.13,7.11 0.17,10.66q0.13,10.63 0.19,21.27c0,7.09 0,14.17 0.06,21.25s0,14.16 -0.07,21.24l-0.56,-1c3.68,0.29 7.36,0.6 11,1l5.51,0.59c1.84,0.21 3.68,0.41 5.52,0.67c-1.84,0 -3.68,0 -5.52,0l-5.51,0c-3.68,0 -7.36,-0.15 -11,-0.28l-0.54,0l0,-1q-0.07,-10.65 -0.08,-21.29c0,-7.09 0,-14.19 0.05,-21.27s0.1,-14.18 0.19,-21.26c0,-3.54 0.09,-7.07 0.16,-10.61s0.11,-7.09 0.21,-10.63z"/>
   <path id="svg_52" fill="#a6a6a6" d="m550.42,229.87c-0.09,-3.93 -0.15,-7.86 -0.22,-11.79s-0.13,-7.87 -0.17,-11.8q-0.13,-11.81 -0.2,-23.59c-0.05,-7.87 -0.05,-15.72 -0.07,-23.58s0,-15.72 0,-23.56l0.57,1.07c-4.57,-1 -9.13,-2 -13.7,-3.09c-2.28,-0.53 -4.56,-1.1 -6.84,-1.68s-4.57,-1.13 -6.85,-1.76c2.28,0.3 4.56,0.67 6.85,1s4.56,0.72 6.84,1.12q6.86,1.17 13.7,2.47l0.56,0.11l0,1c0.06,7.85 0.06,15.69 0.08,23.54s0,15.69 0,23.52s-0.09,15.68 -0.18,23.52c0,3.92 -0.09,7.83 -0.16,11.75s-0.12,7.88 -0.21,11.75z"/>
   <path id="svg_53" fill="#a6a6a6" d="m561.4,157.76c0.1,3.37 0.16,6.73 0.23,10.09s0.13,6.73 0.17,10.09q0.15,10.06 0.2,20.13c0.06,6.71 0.06,13.41 0.07,20.11s0,13.4 -0.06,20.1l-0.56,-0.95c3.68,0.28 7.36,0.59 11,0.95l5.51,0.58c1.84,0.2 3.68,0.39 5.52,0.64c-1.84,0 -3.68,0 -5.52,0l-5.51,-0.05c-3.68,-0.05 -7.36,-0.16 -11,-0.3l-0.54,0l0,-0.93c-0.06,-6.72 -0.07,-13.43 -0.09,-20.15s0,-13.42 0,-20.13s0.09,-13.42 0.18,-20.12q0.06,-5 0.16,-10c0.09,-3.38 0.15,-6.73 0.24,-10.06z"/>
   <path id="svg_54" fill="#a6a6a6" d="m589.19,232.5c-0.1,-3.72 -0.16,-7.43 -0.23,-11.14s-0.13,-7.43 -0.17,-11.14q-0.15,-11.15 -0.21,-22.28c-0.06,-7.43 -0.06,-14.85 -0.09,-22.27s0,-14.84 0,-22.25l0.56,1q-6.84,-1.47 -13.69,-3.08c-2.28,-0.52 -4.57,-1.08 -6.85,-1.65s-4.56,-1.13 -6.85,-1.74c2.29,0.31 4.57,0.67 6.85,1s4.56,0.72 6.85,1.12q6.84,1.19 13.69,2.5l0.56,0.11l0,0.91c0.06,7.42 0.06,14.82 0.08,22.23s0,14.81 0,22.21s-0.08,14.8 -0.16,22.2q-0.06,5.55 -0.16,11.1c-0.03,3.76 -0.09,7.47 -0.18,11.17z"/>
   <path id="svg_55" fill="#a6a6a6" d="m522.66,88.79c0.19,3.73 0.31,7.43 0.4,11.13s0.15,7.39 0.19,11.08l-0.59,-1.17c1.84,0.37 3.68,0.78 5.51,1.2s3.67,0.89 5.51,1.4s3.67,1 5.51,1.6s3.67,1.18 5.51,1.9c-1.84,-0.13 -3.67,-0.36 -5.51,-0.64s-3.67,-0.58 -5.51,-0.93s-3.67,-0.74 -5.51,-1.14s-3.67,-0.85 -5.51,-1.33l-0.59,-0.15l0,-1c0,-3.68 0.09,-7.34 0.18,-11s0.22,-7.32 0.41,-10.95z"/>
   <path id="svg_56" fill="#a6a6a6" d="m550.37,115.22c-0.1,-2.06 -0.16,-4.12 -0.22,-6.17s-0.13,-4.11 -0.17,-6.15q-0.15,-6.15 -0.2,-12.29l0.58,1.13c-2.28,-0.52 -4.57,-1.15 -6.85,-1.73s-4.56,-1.24 -6.84,-1.94s-4.56,-1.39 -6.84,-2.15c-1.14,-0.37 -2.29,-0.78 -3.43,-1.2s-2.28,-0.82 -3.42,-1.29c1.14,0.15 2.28,0.35 3.42,0.55s2.29,0.39 3.43,0.63c2.28,0.46 4.56,1 6.84,1.52s4.56,1.14 6.84,1.73s4.56,1.24 6.85,1.94l0.58,0.17l0,1q0,6.09 -0.18,12.17q-0.06,3 -0.16,6.07c-0.08,1.97 -0.14,3.99 -0.23,6.01z"/>
   <path id="svg_57" fill="#a6a6a6" d="m561.37,98.87c0.19,3.53 0.31,7 0.4,10.54s0.16,7 0.2,10.49l-0.59,-1.12c1.84,0.38 3.67,0.78 5.51,1.21s3.67,0.89 5.51,1.39s3.67,1 5.5,1.58s3.68,1.17 5.51,1.87c-1.83,-0.15 -3.67,-0.39 -5.5,-0.67s-3.68,-0.6 -5.51,-1s-3.67,-0.75 -5.51,-1.15s-3.67,-0.85 -5.51,-1.32l-0.6,-0.15l0,-1c0,-3.48 0.09,-6.95 0.18,-10.41s0.22,-6.83 0.41,-10.26z"/>
   <path id="svg_58" fill="#a6a6a6" d="m589.08,124.23c-0.1,-2 -0.16,-3.89 -0.22,-5.83s-0.13,-3.88 -0.18,-5.81c-0.09,-3.88 -0.16,-7.74 -0.19,-11.6l0.57,1.07c-2.28,-0.53 -4.56,-1.15 -6.84,-1.74s-4.57,-1.24 -6.85,-1.93s-4.56,-1.38 -6.84,-2.13c-1.14,-0.37 -2.28,-0.78 -3.42,-1.19s-2.28,-0.81 -3.42,-1.27c1.14,0.16 2.28,0.37 3.42,0.57s2.28,0.41 3.42,0.65c2.28,0.47 4.56,1 6.84,1.53s4.56,1.15 6.85,1.74s4.56,1.24 6.84,1.93l0.58,0.18l0,0.9q0,5.74 -0.17,11.48c0,1.91 -0.09,3.82 -0.16,5.73s-0.13,3.82 -0.23,5.72z"/>
   <polygon id="svg_59" fill="#fff" points="577.56 250.37 577.59 285.87 589.2 285.72 589.17 250.83 577.56 250.37"/>
   <polygon id="svg_60" fill="#ebebeb" points="580.33 258.23 580.33 266.25 589.18 265.25 589.17 258.48 580.33 258.23"/>
   <polygon id="svg_61" fill="#fff" points="580.33 254.22 580.33 262.24 595.72 262.58 595.71 254.75 580.33 254.22"/>
   <polygon id="svg_62" fill="#263238" points="677.73 43.33 677.73 432.79 663.27 432.79 663.27 58.45 501.56 58.45 501.56 432.79 487.12 432.79 487.12 43.33 677.73 43.33"/>
   <path id="svg_63" fill="rgb(247, 169, 160)" d="m584.62,425.76c2,0.58 60.93,-2.51 63,-4c0.26,-0.17 0.1,-5.49 -0.25,-12.79l1.25,-43.48l-37.24,1.51l-1.55,37.68s-8.22,4.17 -15,7.8l0,0a80.54,80.54 0 0 0 -8.61,5c-2.15,1.86 -3.63,7.71 -1.6,8.28z"/>
   <path id="svg_64" fill="#FCD34D" d="m584.62,425.76c2,0.58 60.93,-2.51 63,-4c0.26,-0.17 0.1,-5.49 -0.25,-12.79c-14.44,3.78 -53,10.49 -54.31,7.47c-0.49,-1.19 0.38,-2.62 1.72,-3.95a80.54,80.54 0 0 0 -8.61,5c-2.1,1.85 -3.58,7.7 -1.55,8.27z"/>
   <path id="svg_65" fill="#37474f" d="m658.52,207.08s-9.36,112.46 -9.52,113.83c0,0.18 1.8,81.83 1.8,81.83l-41.3,1.66s1.29,-71.4 2.36,-87.4c1.36,-20.4 9,-108.54 9,-108.54l37.66,-1.38z"/>
   <path id="svg_66" fill="#263238" d="m611.9,395.34c10.63,-0.85 35.27,-1.12 36.68,-1.12c0.36,0 0.18,0.31 0.08,0.32c-3.37,0.46 -26.82,1.24 -36.79,1.23c-0.11,0 -0.08,-0.43 0.03,-0.43z"/>
   <path id="svg_67" fill="#263238" d="m649,320.9s0,0.33 0,0.92l-20.17,-113.64l29.69,-1.1s-9.36,112.45 -9.52,113.82z"/>
   <polygon id="svg_68" fill="rgb(247, 169, 160)" points="663.27 365 663.17 364.67 663.27 364.63 663.27 365"/>
   <path id="svg_69" fill="rgb(247, 169, 160)" d="m663.44,414.58c-0.06,0.15 -0.12,0.29 -0.17,0.44l0,14a34.78,34.78 0 0 1 -4.14,1.7c-2.1,0.26 -3,-5.71 -1.73,-8.27a80.25,80.25 0 0 1 5.87,-7.7l0.17,-0.17z"/>
   <path id="svg_70" fill="#FCD34D" d="m663.27,415c-0.57,1.52 -0.73,2.91 0,3.76l0,10.28a34.78,34.78 0 0 1 -4.14,1.7c-2.1,0.26 -3,-5.71 -1.73,-8.27a80.25,80.25 0 0 1 5.87,-7.7l0.17,-0.21c-0.06,0.17 -0.12,0.31 -0.17,0.44z"/>
   <path id="svg_71" fill="#37474f" d="m663.27,206.9l0,168.64c-5.06,-18.22 -11.4,-41.83 -14.24,-55.43c-0.6,-2.89 -1,-5.32 -1.28,-7.16c-2.25,-17.16 -5.11,-52.3 -6.75,-77.82l0,0s-4.88,-3 -8.38,-5.52a21.52,21.52 0 0 1 -3.08,-2.54l-0.08,-0.09c-1.53,-1.81 -3.24,-8.09 -6.07,-14.74c-0.13,-0.3 -0.26,-0.61 -0.4,-0.92s-0.25,-0.57 -0.39,-0.86s-0.39,-0.86 -0.6,-1.28c-0.1,-0.24 -0.22,-0.47 -0.33,-0.7l4.29,-0.16l2.87,-0.11l29.69,-1.1l1.8,-0.07l2.95,-0.14z"/>
   <path id="svg_72" fill="#263238" d="m628.39,226.54a39,39 0 0 1 7.23,4.15c2.4,1.59 4.59,3.44 6.9,5.15c0.09,0.06 0,0.21 -0.09,0.15c-2.43,-1.51 -5,-2.83 -7.36,-4.38a46.72,46.72 0 0 1 -6.79,-4.88c-0.08,-0.08 0.01,-0.23 0.11,-0.19z"/>
   <path id="svg_73" fill="#263238" d="m627.88,211.66c0.33,1.65 0.75,3.27 1.13,4.9s0.61,3.1 1,4.62a7.87,7.87 0 0 0 2.2,3.84c0.61,0.56 1.28,1 1.93,1.55c0.35,0.27 0.73,0.53 1.09,0.81c0,-0.22 -0.09,-0.44 -0.13,-0.66c-0.12,-0.63 -0.23,-1.25 -0.34,-1.88c-0.25,-1.38 -0.49,-2.77 -0.72,-4.16c-0.46,-2.72 -0.88,-5.48 -1.48,-8.18a0.09,0.09 0 0 1 0.17,0c0.71,2.67 1.5,5.31 2.13,8c0.3,1.32 1.42,7.86 1.48,8.32s0.1,1 0.12,1.44a6,6 0 0 1 0,1.47a0.12,0.12 0 0 1 -0.22,0l0,0a5.85,5.85 0 0 1 -0.44,-1.42c-0.12,-0.47 -0.23,-0.94 -0.32,-1.41c0,-0.18 -0.06,-0.35 -0.09,-0.53c-0.65,-0.38 -1.26,-0.89 -1.86,-1.32s-1.33,-0.91 -2,-1.42a7.4,7.4 0 0 1 -2.4,-3.65a27.59,27.59 0 0 1 -0.83,-4.69c-0.23,-1.86 -0.4,-3.73 -0.69,-5.58c0.09,-0.11 0.25,-0.16 0.27,-0.05z"/>
   <path id="svg_74" fill="#263238" d="m663.29,155.66l0,0l0,11.73l-1.69,-0.16c-0.1,-0.27 -0.21,-0.56 -0.32,-0.87l-0.29,-0.86c-0.13,-0.4 -0.26,-0.83 -0.39,-1.28c-0.09,-0.28 -0.17,-0.56 -0.24,-0.86s-0.23,-0.84 -0.33,-1.28c-0.07,-0.28 -0.14,-0.57 -0.2,-0.86s-0.19,-0.84 -0.27,-1.28c-0.06,-0.28 -0.11,-0.57 -0.15,-0.86s-0.15,-0.84 -0.21,-1.28l-0.12,-0.86c0,-0.42 -0.1,-0.84 -0.14,-1.28c0,-0.28 0,-0.57 -0.07,-0.86s-0.06,-0.85 -0.07,-1.28s0,-0.57 0,-0.86l0,0c0,0.08 -0.07,0.39 -0.16,0.86s-0.14,0.78 -0.24,1.28c0,0.27 -0.1,0.56 -0.15,0.86s-0.14,0.83 -0.22,1.28c0,0.27 -0.09,0.56 -0.14,0.86s-0.14,0.84 -0.21,1.28l-0.12,0.86c-0.07,0.42 -0.13,0.85 -0.19,1.28l-0.12,0.86l-0.15,1.28c0,0.29 -0.07,0.58 -0.1,0.86c0,0.44 -0.08,0.87 -0.11,1.28s-0.05,0.58 -0.06,0.86c0,0.12 0,0.24 0,0.36l-0.55,-0.06l-0.56,-0.06l-0.54,-0.06l-0.24,0l-1.41,-0.16l-0.09,0c-0.06,-0.28 -0.11,-0.56 -0.17,-0.85s-0.14,-0.84 -0.21,-1.28l-0.12,-0.86c-0.05,-0.41 -0.1,-0.84 -0.13,-1.28c0,-0.28 -0.05,-0.57 -0.07,-0.86s0,-0.75 0,-1.14a0.65,0.65 0 0 1 0,-0.14a0.86,0.86 0 0 1 0,-0.16l0,0.16c0,0.22 -0.13,0.67 -0.25,1.28c0,0.26 -0.09,0.54 -0.15,0.86s-0.15,0.82 -0.23,1.28c0,0.28 -0.09,0.56 -0.13,0.86s-0.14,0.85 -0.21,1.28l-0.09,0.63l-5.59,-0.63l-4.33,-0.5l-1.17,-0.14l-5.36,-0.64l-7.16,-0.86l-1.77,-0.21c0.08,-0.36 0.15,-0.72 0.21,-1.07s0.1,-0.57 0.15,-0.86s0.12,-0.86 0.16,-1.28s0.07,-0.58 0.09,-0.86c0,-0.44 0.07,-0.87 0.08,-1.28c0,-0.2 0,-0.4 0,-0.59l0,-0.27a0.6,0.6 0 0 0 0,-0.19a0.09,0.09 0 0 0 0,-0.05l0,-0.17c0,-0.4 0,-0.77 0,-1.13c-0.1,-3.51 -0.78,-5.54 -0.77,-4.92a23.09,23.09 0 0 1 -1.26,8a18,18 0 0 1 -2.11,4.21l-0.46,0l-6.31,-0.77c-1.36,-0.15 4.37,-4 4.48,-8.23s-2.36,-8.7 0.21,-14.76a31.85,31.85 0 0 1 2.51,-4.77c1.7,-2.67 3.31,-4.58 4.45,-8.08l0,0l0,-0.09a6.44,6.44 0 0 0 0.22,-1.27c0.31,-3 0,-9 1.44,-14.48c0.14,-0.57 0.31,-1.13 0.49,-1.68a17.65,17.65 0 0 1 1.09,-2.58a11.73,11.73 0 0 1 7.43,-6.25l0.07,0a14.78,14.78 0 0 1 15.53,4.54c7.41,3.09 5.6,14 4.82,20a8.24,8.24 0 0 0 0,2c0.27,2.63 1.8,4.65 3.56,6.88l0,0.05l0.87,1.12l0,21.22s0.03,0.08 0.04,0.09z"/>
   <path id="svg_75" fill="#263238" d="m663.27,132.52l0,1.68l-0.35,-0.37l-0.52,-0.55l0,-0.05a18.62,18.62 0 0 1 -3.15,-4.29a10.25,10.25 0 0 1 -1,-6a11.21,11.21 0 0 0 0.59,3.38a10.21,10.21 0 0 0 1.06,2.24a20.44,20.44 0 0 0 3.37,3.96z"/>
   <path id="svg_76" fill="#263238" d="m630.84,106a30.8,30.8 0 0 0 -2.34,7c-0.55,2.42 -1,4.87 -1.37,7.3l-0.62,3.64a18.07,18.07 0 0 1 -0.89,3.44a19.79,19.79 0 0 1 -3.9,5.93a27.14,27.14 0 0 0 -2.29,3a17.22,17.22 0 0 0 -1.69,3.48a24.56,24.56 0 0 0 -0.9,3.72a15.91,15.91 0 0 0 -0.16,3.84c0.1,1.28 0.34,2.51 0.52,3.7a19,19 0 0 1 0.22,3.61a7.61,7.61 0 0 1 -3.57,5.95a7.73,7.73 0 0 0 4.34,-5.88a18.48,18.48 0 0 0 0,-3.79c-0.09,-1.26 -0.28,-2.47 -0.3,-3.66a19.69,19.69 0 0 1 1.24,-7a17.42,17.42 0 0 1 1.58,-3.14a26.59,26.59 0 0 1 2.2,-2.86a35.21,35.21 0 0 0 2.32,-3a15,15 0 0 0 1.78,-3.45a19.55,19.55 0 0 0 0.85,-3.74c0.19,-1.24 0.33,-2.46 0.47,-3.69c0.3,-2.45 0.55,-4.9 0.91,-7.34a35.58,35.58 0 0 1 1.6,-7.06z"/>
   <path id="svg_77" fill="rgb(247, 169, 160)" d="m644.09,146.67c-2.39,13.6 -6.75,35.81 -15.22,46.6c-4.64,5.93 -14.22,14.14 -26.75,16.87l0,-29.27c0.86,-0.46 10.45,-4.11 13.91,-7.29c2.89,-2.66 7.67,-14.06 19.63,-28.8c5.34,-6.59 9.6,-4.78 8.43,1.89z"/>
   <path id="svg_78" fill="#FCD34D" d="m620.36,165.9l18.93,8.81s3.87,-15.09 5.27,-25.92c1.45,-11.26 -4,-12.07 -11.92,-1.57a169.08,169.08 0 0 0 -12.28,18.68z"/>
   <path id="svg_79" fill="#263238" d="m639.85,169.86c-2.58,-1.49 -11,-4.85 -12.33,-5.42c-0.73,-0.31 -3.68,-1.38 -4.4,-1.68c-0.09,0 -0.14,0.11 0,0.15c1.37,0.58 2.7,1.31 4.07,1.9s9.77,4.33 12.66,5.16c0.02,0.03 0.06,-0.08 0,-0.11z"/>
   <path id="svg_80" fill="#FCD34D" d="m663.29,155.66l0,0l0,56.75l-5.19,0c-9.78,0 -20.71,-0.06 -28.52,-0.14l-1.55,0l-0.22,0c-1.66,0 -3.14,0 -4.4,-0.06l-2.86,0l-1.58,0l0.13,-0.87l0.12,-0.86l0.19,-1.28l0.12,-0.86l0.19,-1.28l0.12,-0.86l0.19,-1.28l0.12,-0.86l0.19,-1.28l0.13,-0.86l0.07,-0.51l0.11,-0.77l0.13,-0.86l0.18,-1.28l0.13,-0.86l0.18,-1.27l0.13,-0.87l0.18,-1.27l0.13,-0.87l0.19,-1.27l0.12,-0.87l0.19,-1.27l0.12,-0.87l0.19,-1.27l0.12,-0.87l0.19,-1.27l0.13,-0.87l0.18,-1.27l0.09,-0.62a0,0 0 0 0 0,0a0.31,0.31 0 0 1 -0.05,-0.09s0,-0.08 -0.07,-0.13s0,0 0,0l0,0a0.67,0.67 0 0 1 -0.06,-0.12l-0.12,-0.21c-0.12,-0.24 -0.28,-0.56 -0.46,-0.94l-0.39,-0.87c-0.16,-0.39 -0.33,-0.81 -0.5,-1.27c-0.1,-0.28 -0.21,-0.57 -0.3,-0.87s-0.27,-0.83 -0.39,-1.27c-0.08,-0.28 -0.15,-0.57 -0.22,-0.87s-0.18,-0.84 -0.25,-1.27c0,-0.23 -0.08,-0.47 -0.12,-0.71c0,-0.05 0,-0.11 0,-0.16c0,-0.42 -0.09,-0.84 -0.11,-1.27s0,-0.57 0,-0.86s0,-0.86 0.07,-1.28s0.07,-0.57 0.12,-0.86c0,-0.13 0,-0.27 0.07,-0.4a8.86,8.86 0 0 1 0.23,-0.88c0.08,-0.27 0.18,-0.56 0.29,-0.86s0.14,-0.39 0.23,-0.59l0,0a7.08,7.08 0 0 1 0.28,-0.65s0,0 0,0c0.12,-0.28 0.25,-0.57 0.39,-0.86s0.4,-0.84 0.62,-1.28l0.45,-0.86l0.24,-0.43s0,-0.09 0.07,-0.14l0.4,-0.71c0.15,-0.28 0.32,-0.57 0.49,-0.86s0.49,-0.85 0.75,-1.28l0.52,-0.86l0.8,-1.28c0.07,-0.11 0.14,-0.23 0.22,-0.34s0.22,-0.34 0.33,-0.52l0.15,-0.24l0.67,-1l0.57,-0.86c0.28,-0.43 0.57,-0.86 0.86,-1.28l0.58,-0.86l0.88,-1.28l0.3,-0.43l0.18,-0.26l0.12,-0.17c0.3,-0.44 0.6,-0.86 0.9,-1.27l0.62,-0.87l0.92,-1.27l0.64,-0.87c0.34,-0.45 0.65,-0.88 0.95,-1.27l0.66,-0.87c0.38,-0.5 0.71,-0.92 1,-1.27s0.51,-0.64 0.67,-0.81l0,0l0,0l0.1,-0.11l0.51,-0.49l0.13,-0.11a8.64,8.64 0 0 1 0.67,-0.56c0.26,-0.2 0.52,-0.4 0.79,-0.57a4.66,4.66 0 0 1 0.47,-0.3a11.07,11.07 0 0 1 9.9,-1.04a11.64,11.64 0 0 1 1.64,0.78a9.46,9.46 0 0 1 0.91,0.54a5.25,5.25 0 0 1 0.49,0.33a16,16 0 0 1 1.28,1l0,0l0.3,0.27l0.11,0.1l0,0l0.3,0.28c0.17,0.16 0.34,0.32 0.5,0.49s0.38,0.38 0.56,0.58l0.61,0.69a1.47,1.47 0 0 1 0.1,0.13l0.58,0.72s0,0 0,0c0.3,0.4 0.61,0.82 0.9,1.27q0.3,0.42 0.57,0.87c0.26,0.41 0.52,0.83 0.78,1.27c0.16,0.29 0.33,0.58 0.5,0.87l0.68,1.27l0.43,0.86c0.21,0.42 0.42,0.84 0.63,1.28c0.13,0.28 0.27,0.57 0.4,0.86s0.39,0.84 0.58,1.28c0.12,0.26 0.24,0.54 0.36,0.81l0,0s0.07,0.1 0.08,0.11z"/>
   <path id="svg_81" opacity="0.1" d="m619.2,210.43l-0.12,0.86l44.19,0l0,-0.86l-44.07,0zm0.31,-2.14l-0.12,0.86l43.88,0l0,-0.86l-43.76,0zm0.31,-2.14l-0.12,0.86l43.57,0l0,-0.86l-43.45,0zm0.31,-2.14l-0.12,0.86l43.26,0l0,-0.87l-43.14,0.01zm0.32,-2.14l-0.13,0.86l42.95,0l0,-0.86l-42.82,0zm0.31,-2.14l-0.13,0.86l42.64,0l0,-0.86l-42.51,0zm0.31,-2.14l-0.13,0.86l42.33,0l0,-0.86l-42.2,0zm0.31,-2.14l-0.13,0.87l42,0l0,-0.87l-41.87,0zm0.31,-2.14l-0.13,0.87l41.71,0l0,-0.87l-41.58,0zm0.31,-2.14l-0.12,0.87l41.39,0l0,-0.87l-41.27,0zm0.31,-2.14l-0.12,0.87l41.08,0l0,-0.9l-40.96,0.03zm0.31,-2.14l-0.12,0.87l40.77,0l0,-0.87l-40.65,0zm0.32,-2.14l-0.13,0.87l40.46,0l0,-0.87l-40.33,0zm0.13,-2.14l0,0s0,0.09 0.07,0.13a0.31,0.31 0 0 0 0.05,0.09a0,0 0 0 1 0,0l-0.09,0.62l40.15,0l0,-0.87l-40.18,0.03zm12.59,-2.14l-13.38,0a8.31,8.31 0 0 0 0.35,0.87l12.68,0l0.35,-0.87zm-13.62,0l0.39,0.87l40.84,0l0,-0.87l-41.23,0zm-0.8,-2.14c0.09,0.3 0.2,0.59 0.3,0.87l41.73,0l0,-0.87l-42.03,0zm-0.61,-2.14c0.07,0.3 0.14,0.59 0.22,0.87l42.42,0l0,-0.87l-42.64,0zm-0.38,-2.14a0.13,0.13 0 0 0 0,0.06q0,0.4 0.12,0.81l42.89,0l0,-0.87l-43.01,0zm36.84,-1.27c-0.1,-0.27 -0.19,-0.55 -0.3,-0.86l-16.79,0c-0.07,0.31 -0.14,0.6 -0.21,0.86l17.3,0zm-37,-0.86c0,0.29 0,0.57 0,0.86l43.13,0l0,-0.86l-43.13,0zm37.39,-1.28c-0.1,-0.29 -0.2,-0.57 -0.29,-0.86l-1.13,0l0.28,0.86l1.14,0zm-37.2,-0.86c0,0.29 -0.09,0.57 -0.12,0.86l43.08,0l0,-0.86l-42.96,0zm0.59,-2.14c-0.11,0.3 -0.21,0.59 -0.29,0.86l42.66,0l0,-0.86l-42.37,0zm0.91,-2.14c-0.14,0.29 -0.27,0.58 -0.39,0.86l41.85,0l0,-0.86l-41.46,0zm1.07,-2.14l-0.45,0.86l40.84,0l0,-0.86l-40.39,0zm31.7,2.14l-24.44,0l2.08,0.86l22.62,0l-0.17,-0.62l-0.09,-0.24zm-30.5,-4.28c-0.17,0.29 -0.34,0.58 -0.49,0.86l39.68,0l0,-0.86l-39.19,0zm1.27,-2.14l-0.52,0.86l38.44,0l0,-0.86l-37.92,0zm27.92,2.14s0,0 0,0c0.11,0.28 0.22,0.56 0.34,0.84l0.06,0c-0.08,-0.29 -0.15,-0.57 -0.22,-0.86l-0.18,0.02zm-26.57,-4.28c-0.11,0.18 -0.23,0.35 -0.33,0.52s-0.15,0.23 -0.22,0.34l37.12,0l0,-0.86l-36.57,0zm36.57,-1.32l0,0c-0.12,-0.27 -0.24,-0.55 -0.36,-0.81l-34.79,0l-0.57,0.86l35.77,0s-0.01,-0.04 -0.02,-0.05l-0.03,0zm-1.34,-3l-32.4,0l-0.58,0.86l33.38,0c-0.1,-0.25 -0.24,-0.54 -0.37,-0.82l-0.03,-0.04zm-1.06,-2.14l-29.84,0l-0.12,0.17l-0.18,0.26l-0.3,0.43l30.9,0l-0.46,-0.86zm-31.25,2.14l-0.4,0.65l-0.14,0.21l13.79,0c0.06,-0.29 0.11,-0.58 0.16,-0.86l-13.41,0zm30.07,-4.28l-27.13,0l-0.62,0.87l28.28,0c-0.19,-0.21 -0.34,-0.54 -0.5,-0.83l-0.03,-0.04zm-1.35,-2.14l-24.22,0l-0.64,0.87l25.46,0q-0.27,-0.41 -0.57,-0.83l-0.03,-0.04zm-0.91,-1.29l-0.58,-0.72a1.47,1.47 0 0 0 -0.1,-0.13l-21,0l-0.72,0.94l22.4,0s0.03,0 0.03,0l-0.03,-0.09zm-2.35,-2.61l-0.31,-0.28l-0.11,-0.1l-17.22,0l0,0l0,0c-0.16,0.17 -0.38,0.44 -0.67,0.81l18.89,0c-0.21,-0.07 -0.38,-0.23 -0.55,-0.39l-0.03,-0.04zm-16.83,1.76a4.06,4.06 0 0 0 0.35,0.87l12.57,0a6.93,6.93 0 0 1 0.21,-0.87l-13.13,0zm14.33,-3.74a9.46,9.46 0 0 0 -0.91,-0.54l-11.56,0a4.66,4.66 0 0 0 -0.47,0.3c-0.27,0.17 -0.53,0.37 -0.79,0.57l14.25,0a5.25,5.25 0 0 0 -0.49,-0.29l-0.03,-0.04z"/>
   <path id="svg_82" fill="#263238" d="m626.63,157.55c1.44,-2.4 2.9,-4.79 4.43,-7.13c0,0 0,0 0,0q-1.72,2.43 -3.38,4.94c0.05,-0.11 0.09,-0.23 0.14,-0.33c0.31,-0.64 0.6,-1.28 0.91,-1.9a0,0 0 1 0 -0.05,0a17.08,17.08 0 0 0 -1,1.88c-0.17,0.36 -0.31,0.73 -0.47,1.1c-1.57,2.42 -3.09,4.88 -4.47,7.4a19.18,19.18 0 0 0 -2.2,12.57a18.64,18.64 0 0 0 1,3.51a23.59,23.59 0 0 0 1.74,3.25a0.08,0.08 0 0 0 0.14,-0.08a18.86,18.86 0 0 1 -2.09,-6.07a20.72,20.72 0 0 1 -0.15,-6.48c0.54,-4.7 3.09,-8.71 5.45,-12.66z"/>
   <path id="svg_83" fill="rgb(247, 169, 160)" d="m649.76,141c-0.34,0.9 -4.28,4.51 -8.4,3.27c-2,-0.59 -1.76,-5.48 -1.76,-5.48l-0.05,-0.58l-0.74,-8.06l10,-4.72l1.43,-0.61s0.06,2.22 0.1,5l0,0.39c0,0.16 0,0.31 0,0.45c0,0.42 0,0.84 0,1.26s0,0.63 0,1s0,0.66 0,1a52.91,52.91 0 0 1 -0.58,7.08z"/>
   <path id="svg_84" fill="#263238" d="m650.32,129.85a16.24,16.24 0 0 1 -10.77,8.4l-0.74,-8.06l10,-4.72l1.43,-0.61s0.04,2.22 0.08,4.99z"/>
   <path id="svg_85" fill="rgb(247, 169, 160)" d="m628.55,118.3c-1.13,14.18 7.24,16.45 10.29,16.69c2.78,0.22 12.25,0.61 14.84,-13.37s-3.65,-19 -10,-19.82s-14,2.33 -15.13,16.5z"/>
   <path id="svg_86" fill="#263238" d="m630.94,115.29c0.33,0 0.64,-0.12 1,-0.19a1.64,1.64 0 0 0 1,-0.39a0.51,0.51 0 0 0 0,-0.62a1.25,1.25 0 0 0 -1.23,-0.3a1.8,1.8 0 0 0 -1.16,0.64a0.54,0.54 0 0 0 0.39,0.86z"/>
   <path id="svg_87" fill="#263238" d="m640.23,115.79c-0.33,-0.05 -0.63,-0.14 -1,-0.22a1.51,1.51 0 0 1 -0.93,-0.4a0.51,0.51 0 0 1 0,-0.62a1.27,1.27 0 0 1 1.24,-0.28a1.82,1.82 0 0 1 1.15,0.66a0.54,0.54 0 0 1 -0.46,0.86z"/>
   <path id="svg_88" fill="#263238" d="m638,119.36s0.08,0 0.07,0.09c-0.06,1 0,2.08 0.9,2.43c0,0 0,0.06 0,0.05c-1.07,-0.18 -1.17,-1.67 -0.97,-2.57z"/>
   <path id="svg_89" fill="#263238" d="m638.91,118.38c1.56,-0.07 1.58,3.05 0.13,3.12s-1.44,-3.07 -0.13,-3.12z"/>
   <path id="svg_90" fill="#263238" d="m639.52,118.54c0.28,0.17 0.55,0.48 0.88,0.51s0.66,-0.29 0.91,-0.61c0,0 0.05,0 0.05,0c0,0.6 -0.21,1.21 -0.85,1.31s-1,-0.45 -1.16,-1.05c-0.03,-0.07 0.06,-0.23 0.17,-0.16z"/>
   <path id="svg_91" fill="#263238" d="m632.78,118.85s-0.07,0.05 -0.07,0.09c0,1 -0.07,2.08 -0.94,2.41a0,0 0 0 0 0,0.06c1.07,-0.17 1.23,-1.65 1.01,-2.56z"/>
   <path id="svg_92" fill="#263238" d="m631.9,117.85c-1.56,-0.09 -1.63,3 -0.19,3.12s1.5,-3.04 0.19,-3.12z"/>
   <path id="svg_93" fill="#263238" d="m631.25,118c-0.25,0.16 -0.51,0.46 -0.8,0.47s-0.59,-0.33 -0.8,-0.66c0,0 0,0 0,0c0,0.6 0.15,1.22 0.72,1.35s0.92,-0.38 1.08,-1c-0.02,-0.01 -0.1,-0.16 -0.2,-0.16z"/>
   <path id="svg_94" fill="#263238" d="m638.77,127c-0.2,0.26 -0.38,0.6 -0.72,0.68a2.76,2.76 0 0 1 -1.07,-0.09s-0.06,0 0,0a1.29,1.29 0 0 0 1.29,0.34a1,1 0 0 0 0.63,-1c-0.02,-0.01 -0.1,-0.02 -0.13,0.07z"/>
   <path id="svg_95" fill="#263238" d="m634.2,123.2s-0.21,1.45 -0.21,2.13c0,0.06 0.16,0.09 0.39,0.11c0,0 0,0 0,0a3.21,3.21 0 0 0 3.15,-1.19c0.05,-0.07 0,-0.14 -0.1,-0.1a4.82,4.82 0 0 1 -3,0.83c0,-0.19 0.44,-2.46 0.33,-2.47a6.39,6.39 0 0 0 -1.55,0.34c0.34,-3 1.17,-6 1.47,-9c0,-0.11 -0.15,-0.14 -0.18,0a49.06,49.06 0 0 0 -2,9.6c0.02,0.37 1.42,-0.13 1.7,-0.25z"/>
   <path id="svg_96" fill="#263238" d="m634.43,125.25a4.14,4.14 0 0 0 1.57,1.35a1.74,1.74 0 0 0 1.11,0.13c0.81,-0.16 0.87,-0.9 0.76,-1.54a4.53,4.53 0 0 0 -0.3,-1a5.3,5.3 0 0 1 -3.14,1.06z"/>
   <path id="svg_97" fill="#ff9abb" d="m636,126.6a1.74,1.74 0 0 0 1.11,0.13c0.81,-0.16 0.87,-0.9 0.76,-1.54a1.9,1.9 0 0 0 -1.87,1.41z"/>
   <path id="svg_98" fill="#263238" d="m653.27,120.6c-1.54,-0.09 -5.54,-4.33 -5.66,-11.75c0,0 0.57,6.66 1.07,7.64s-2.24,-2.39 -2.42,-8.37a24.31,24.31 0 0 1 -6.14,3.18c-2.83,0.79 -4.56,0.76 -4.77,0.56s4,-1.51 5.09,-2.81c0,0 -7.52,3.49 -11,3.76c-0.4,0 -0.88,-8.22 4.48,-11.72s13.86,0.28 16.14,2.49c0,0 2.68,0.38 5.59,4.35s-0.72,12.77 -2.38,12.67z"/>
   <path id="svg_99" fill="rgb(247, 169, 160)" d="m650.26,122.65s2.85,-4.6 4.93,-3.61s0.1,7.54 -2.21,8.56a2.41,2.41 0 0 1 -3.29,-1.11l0.57,-3.84z"/>
   <path id="svg_100" fill="#263238" d="m654.58,120.9s0,0 0,0.07a6,6 0 0 0 -2.92,4a1.33,1.33 0 0 1 2,-0.48s0,0.1 0,0.1a1.47,1.47 0 0 0 -1.6,0.6a7.6,7.6 0 0 0 -0.7,1.36c-0.07,0.15 -0.34,0.09 -0.29,-0.08l0,0c-0.22,-2.18 1.25,-5.23 3.51,-5.57z"/>
   <path id="svg_101" fill="#fff" d="m651,127.37a1,1 0 1 0 1,-1.09a1,1 0 0 0 -1,1.09z"/>
   <path id="svg_102" fill="rgb(247, 169, 160)" d="m663.29,155.66l0,0l0,31.53l-0.11,-0.3l-0.45,-1.27c-0.11,-0.29 -0.21,-0.58 -0.31,-0.87l-0.45,-1.27l-0.31,-0.87l-0.45,-1.27c-0.1,-0.29 -0.2,-0.58 -0.31,-0.87s-0.29,-0.85 -0.44,-1.27s-0.2,-0.58 -0.31,-0.87s-0.29,-0.85 -0.44,-1.27l-0.3,-0.87l-0.27,-0.81l0,-0.08a0.06,0.06 0 0 1 0,0l-0.12,-0.34l-0.3,-0.87c-0.15,-0.43 -0.29,-0.85 -0.43,-1.27c0,-0.1 -0.07,-0.2 -0.1,-0.29a0.88,0.88 0 0 1 0,-0.15c-0.05,-0.14 -0.1,-0.28 -0.14,-0.42c-0.15,-0.43 -0.29,-0.86 -0.43,-1.28s-0.2,-0.57 -0.29,-0.86s-0.29,-0.86 -0.43,-1.28s-0.19,-0.58 -0.28,-0.86s-0.22,-0.66 -0.32,-1c0,-0.1 -0.07,-0.2 -0.1,-0.3c-0.09,-0.29 -0.19,-0.58 -0.28,-0.86c-0.14,-0.43 -0.28,-0.86 -0.41,-1.28l-0.27,-0.86c-0.14,-0.43 -0.28,-0.86 -0.4,-1.28s-0.19,-0.58 -0.27,-0.86c-0.14,-0.44 -0.27,-0.86 -0.39,-1.28s-0.18,-0.58 -0.26,-0.86c-0.13,-0.44 -0.26,-0.86 -0.38,-1.28s-0.17,-0.58 -0.25,-0.86c-0.13,-0.44 -0.25,-0.87 -0.36,-1.28s-0.16,-0.58 -0.24,-0.86s-0.19,-0.72 -0.28,-1.07a1.6,1.6 0 0 1 0,-0.21c-0.08,-0.3 -0.15,-0.58 -0.21,-0.86c-0.11,-0.44 -0.2,-0.87 -0.28,-1.28s-0.11,-0.58 -0.16,-0.86c-0.08,-0.44 -0.14,-0.87 -0.19,-1.27s-0.07,-0.59 -0.09,-0.87c0,-0.45 -0.06,-0.87 -0.06,-1.27s0,-0.6 0,-0.87a11.47,11.47 0 0 1 0.14,-1.27a5,5 0 0 1 0.21,-0.87a3.69,3.69 0 0 1 0.64,-1.27a2.17,2.17 0 0 1 1.59,-0.85a2.85,2.85 0 0 1 0.74,0.1l0,0c1.36,0.32 3.05,1.5 5,3.59c1.16,1.28 2.35,2.66 3.54,4.14l0,5.83s0,-0.01 0.01,0z"/>
   <path id="svg_103" fill="#FCD34D" d="m663.29,155.66l0,0l0,17.72l-1.46,0.67l-1.9,0.87l-0.8,0.36l0,0l-1,0.43s-0.11,-0.28 -0.3,-0.81c-0.09,-0.24 -0.19,-0.53 -0.31,-0.87s-0.28,-0.79 -0.44,-1.27c-0.1,-0.27 -0.19,-0.55 -0.3,-0.86l-0.42,-1.28l-0.28,-0.86c-0.12,-0.41 -0.26,-0.83 -0.4,-1.28c-0.09,-0.28 -0.17,-0.56 -0.26,-0.86l-0.34,-1.1a1.21,1.21 0 0 0 -0.05,-0.18c-0.08,-0.28 -0.17,-0.56 -0.26,-0.86s-0.24,-0.84 -0.36,-1.28c-0.08,-0.28 -0.16,-0.57 -0.25,-0.86s-0.23,-0.85 -0.35,-1.28s-0.15,-0.57 -0.22,-0.86s-0.23,-0.85 -0.34,-1.28c-0.07,-0.28 -0.15,-0.57 -0.22,-0.86s-0.21,-0.85 -0.32,-1.28s-0.14,-0.57 -0.2,-0.86s-0.11,-0.43 -0.16,-0.65s-0.1,-0.42 -0.14,-0.63s-0.14,-0.57 -0.2,-0.86l-0.12,-0.54c-0.06,-0.25 -0.11,-0.5 -0.16,-0.74s-0.12,-0.58 -0.17,-0.86c-0.08,-0.44 -0.16,-0.87 -0.22,-1.28s-0.09,-0.58 -0.13,-0.86c-0.05,-0.44 -0.1,-0.86 -0.14,-1.27l-0.06,-0.87c0,-0.45 0,-0.87 0,-1.27s0,-0.6 0,-0.87a11.37,11.37 0 0 1 0.15,-1.27a6.93,6.93 0 0 1 0.21,-0.87a4.25,4.25 0 0 1 0.57,-1.27a2.46,2.46 0 0 1 0.92,-0.87a2.41,2.41 0 0 1 1.48,-0.27l0,0c1.65,0.18 3.85,1.65 6.46,4.52c0.8,0.89 1.62,1.83 2.45,2.81l0,6.6s0.03,0.05 0.04,0.06z"/>
   <path id="svg_104" fill="#263238" d="m659,175.26a3.43,3.43 0 0 1 -0.83,0.24c-0.12,-0.76 -1.1,-4 -1.35,-4.82c-0.5,-1.72 -1,-3.42 -1.53,-5.14c-1,-3.43 -2,-6.87 -3,-10.29c0,-0.07 -0.12,0 -0.11,0c0.44,2.43 1,4.83 1.61,7.21c-0.17,-0.41 -0.34,-0.83 -0.5,-1.25c-0.32,-0.83 -0.62,-1.66 -1,-2.48a0.05,0.05 0 1 0 -0.1,0a16.78,16.78 0 0 0 0.87,2.56c0.27,0.64 0.58,1.27 0.88,1.9c0.22,0.83 0.44,1.66 0.67,2.49c0.47,1.73 1,3.45 1.5,5.15c0.26,0.82 0.53,1.63 0.8,2.44a15,15 0 0 0 1.14,2.53a6.24,6.24 0 0 0 1,-0.46c0.14,0.01 0.06,-0.12 -0.05,-0.08z"/>
   <path id="svg_105" fill="#263238" d="m663.27,169.72l0,0.57l-0.76,0.35l-0.25,0.11c-0.93,0.42 -1.88,0.78 -2.82,1.17c-0.44,0.18 -0.88,0.37 -1.31,0.57l0,0c-0.09,0 -0.17,-0.09 -0.08,-0.14l0.05,0l0.82,-0.42l2.48,-1.28c0.36,-0.18 0.66,-0.34 0.84,-0.42l0.92,-0.44l0.11,-0.07z"/>
   <path id="svg_106" fill="#263238" d="m638.11,141s0.07,0 0.06,0c-0.28,1.8 -0.18,3.71 1.29,5s3.66,0.92 5.35,0.57a12.29,12.29 0 0 0 4.87,-2.16c1.27,-1 2.33,-2.93 1.2,-4.54c0,-0.08 0,-0.12 0.06,-0.06a3.09,3.09 0 0 1 0.49,3.55a7.18,7.18 0 0 1 -3.56,3a13.42,13.42 0 0 1 -5,1.26a4.48,4.48 0 0 1 -4.11,-1.61a5.62,5.62 0 0 1 -0.65,-5.01z"/>
   <path id="svg_107" fill="#a6a6a6" d="m663.29,155.66l0,0l0,0s-0.01,-0.01 0,0z"/>
   <path id="svg_108" fill="#a6a6a6" d="m663.44,404.58c-0.06,0.15 -0.12,0.29 -0.17,0.44l0,-0.23l0.17,-0.21z"/>
  </g>
  <g id="freepik--character-1--inject-63">
   <path id="svg_109" fill="#ad6359" d="m215.65,452.69c-2.29,0.74 -67.28,-0.1 -69.73,-1.71c-0.95,-0.59 -1.37,-10.07 -1.56,-21.54c0,-0.12 0,-0.24 0,-0.36c0,-2.36 -0.07,-4.79 -0.08,-7.26c0,-0.34 0,-0.68 0,-1l3.16,-33.71l43.47,0.43l-4.29,33.4l0,1.33l-0.26,6.91l0,0.71s24.73,11.45 27.24,13.5s4.33,8.61 2.05,9.3z"/>
   <path id="svg_110" fill="#ebebeb" d="m215.65,452.69c-2.29,0.74 -67.28,-0.1 -69.73,-1.71c-0.95,-0.59 -1.37,-10.07 -1.56,-21.54c0,-0.12 0,-0.24 0,-0.36c0,-2.36 -0.07,-4.79 -0.08,-7.26c0,-0.34 0,-0.68 0,-1l42.34,0.12l0,1.33l-0.26,6.91l0,0.71s24.73,11.45 27.24,13.5s4.33,8.61 2.05,9.3z"/>
   <path id="svg_111" fill="#FCD34D" d="m215.65,452.69c-1.17,0.38 -18.83,0.34 -36.09,0c-3.47,-0.07 -6.92,-0.15 -10.21,-0.24c-12.31,-0.34 -22.48,-0.84 -23.43,-1.46s-1.36,-9.8 -1.55,-21.06c0,-0.16 0,-0.32 0,-0.48s0,-0.25 0,-0.36l0.05,0l41.89,0.07l0,0.72s24.74,11.44 27.24,13.49s4.38,8.63 2.1,9.32z"/>
   <path id="svg_112" fill="#263238" d="m214.94,450.16c-10.95,-0.41 -55.17,-1 -66,-0.61c-0.09,0 -0.09,0.07 0,0.07c10.84,0.65 55.06,0.91 66,0.72c0.23,0 0.23,-0.17 0,-0.18z"/>
   <path id="svg_113" fill="#263238" d="m191,429.34c-4.3,-0.86 -9.59,-0.27 -12.92,2.76c-0.13,0.12 0,0.3 0.18,0.26a60.31,60.31 0 0 1 12.71,-2.48a0.27,0.27 0 0 0 0.03,-0.54z"/>
   <path id="svg_114" fill="#263238" d="m194,431.26c-4.3,-0.87 -9.58,-0.27 -12.91,2.76c-0.13,0.11 0,0.3 0.18,0.25a60.93,60.93 0 0 1 12.73,-2.47a0.27,0.27 0 0 0 0,-0.54z"/>
   <path id="svg_115" fill="#263238" d="m197.13,433.17c-4.3,-0.86 -9.58,-0.27 -12.91,2.76c-0.13,0.12 0,0.3 0.18,0.26a60.29,60.29 0 0 1 12.71,-2.47a0.28,0.28 0 0 0 0.02,-0.55z"/>
   <path id="svg_116" fill="#263238" d="m179.56,452.68c-3.47,-0.07 -6.92,-0.15 -10.21,-0.24c-12.31,-0.34 -22.48,-0.84 -23.43,-1.46s-1.36,-9.8 -1.55,-21.06c0,-0.16 0,-0.32 0,-0.48s0,-0.25 0,-0.36l0.05,0c5.72,4.02 25.94,17.48 35.14,23.6z"/>
   <path id="svg_117" fill="#455a64" d="m188.89,429.3l-46.81,0s9.42,-109.3 9.06,-111.23c-0.47,-2.45 -17.94,-70.85 -21.29,-83.78c-5,-19.38 -9,-34.43 -9,-34.43l39.67,0s4.62,14.65 10.45,33.72c9.5,31 22.18,73.65 23.44,84c2.06,16.76 -5.52,111.72 -5.52,111.72z"/>
   <path id="svg_118" fill="#263238" d="m187.07,421.32c-7.15,-0.15 -5.09,-0.21 -12.24,-0.28c-3.5,0 -26.5,-0.23 -29.77,0.31a0.07,0.07 0 0 0 0,0.14c3.27,0.55 26.27,0.35 29.77,0.31c7.15,-0.07 5.09,-0.13 12.24,-0.27c0.13,-0.01 0.13,-0.21 0,-0.21z"/>
   <path id="svg_119" fill="#263238" d="m160.2,311.38c-1.54,-6.76 -3.83,-13.39 -5.83,-20q-6.08,-20.23 -12.24,-40.46q-3.07,-10.11 -6.17,-20.22q-1.58,-5.1 -3.16,-10.19c-1,-3.33 -2.23,-6.62 -3.17,-10c-0.38,-1.37 -0.59,-0.62 -0.1,1.11c1,3.5 2,7 3,10.47q3,10.35 6.09,20.68q6.08,20.58 12.28,41.11q3.09,10.31 6.19,20.6a84.14,84.14 0 0 1 2.53,10a45.81,45.81 0 0 1 0.38,10.62c-0.45,7.16 -1.28,14.31 -1.94,21.46s-1.33,14.32 -2,21.48q-2,21.38 -3.92,42.75c-0.17,1.8 -0.32,3.61 -0.46,5.42c-0.05,0.6 0.87,0.56 0.93,0c1.54,-14.09 2.72,-28.23 4.05,-42.34s2.63,-28.09 3.94,-42.13c0.33,-3.52 0.71,-7.06 0.71,-10.6a43.79,43.79 0 0 0 -1.11,-9.76z"/>
   <path id="svg_120" fill="#263238" d="m156.31,199.86c-2.42,18.81 -5.79,82 -6.54,111.59c-4.48,-17.92 -16.89,-66.47 -19.66,-77.16l-8.89,-34.16a0,0 0 0 1 0,0a1.43,1.43 0 0 0 0,-0.18a0.28,0.28 0 0 1 0,-0.06l35.09,-0.03z"/>
   <path id="svg_121" fill="#ad6359" d="m166.77,452.69c-2.28,0.74 -67.27,-0.1 -69.73,-1.71c-0.94,-0.59 -1.37,-10.07 -1.56,-21.54l0,-0.36c0,-2.36 -0.08,-4.79 -0.08,-7.26c0,-0.34 0,-0.68 0,-1l3.15,-33.71l43.48,0.43l-4.29,33.4l0,1.33l-0.26,6.91l0,0.71s24.74,11.45 27.25,13.5s4.32,8.61 2.04,9.3z"/>
   <path id="svg_122" fill="#ebebeb" d="m166.77,452.69c-2.28,0.74 -67.27,-0.1 -69.73,-1.71c-0.94,-0.59 -1.37,-10.07 -1.56,-21.54l0,-0.36c0,-2.36 -0.08,-4.79 -0.08,-7.26c0,-0.34 0,-0.68 0,-1l42.34,0.12l0,1.33l-0.26,6.91l0,0.71s24.74,11.45 27.25,13.5s4.32,8.61 2.04,9.3z"/>
   <path id="svg_123" fill="#FCD34D" d="m166.78,452.69c-1.18,0.38 -18.84,0.34 -36.1,0c-3.47,-0.07 -6.92,-0.15 -10.21,-0.24c-12.31,-0.35 -22.47,-0.85 -23.42,-1.45s-1.36,-9.8 -1.55,-21.06c0,-0.16 0,-0.32 0,-0.48s0,-0.25 0,-0.36l0,0l41.89,0.07l0,0.72s24.73,11.44 27.24,13.49s4.42,8.62 2.15,9.31z"/>
   <path id="svg_124" fill="#263238" d="m166.07,450.16c-11,-0.41 -55.17,-1 -66,-0.61c-0.09,0 -0.09,0.07 0,0.07c10.85,0.65 55.07,0.91 66,0.72c0.23,0 0.23,-0.17 0,-0.18z"/>
   <path id="svg_125" fill="#263238" d="m142.08,429.34c-4.3,-0.86 -9.58,-0.27 -12.91,2.76c-0.13,0.12 0,0.3 0.18,0.26a60.31,60.31 0 0 1 12.71,-2.48a0.27,0.27 0 0 0 0.02,-0.54z"/>
   <path id="svg_126" fill="#263238" d="m145.17,431.26c-4.3,-0.87 -9.58,-0.27 -12.92,2.76c-0.13,0.11 0,0.3 0.18,0.25a61,61 0 0 1 12.72,-2.47a0.27,0.27 0 0 0 0.02,-0.54z"/>
   <path id="svg_127" fill="#263238" d="m148.26,433.17c-4.3,-0.86 -9.58,-0.27 -12.92,2.76c-0.13,0.12 0,0.3 0.18,0.26a60.42,60.42 0 0 1 12.71,-2.47a0.28,0.28 0 0 0 0.03,-0.55z"/>
   <path id="svg_128" fill="#455a64" d="m159.28,199.86s-0.92,19 -5.26,34c-0.35,1.24 -0.73,2.47 -1.14,3.64c0,0 0.61,-0.48 -6.3,3.75c0,0 2.67,75.48 2.78,80c0.39,16.85 -11.86,108.75 -11.86,108.75l-46.8,0.19s16.72,-104.19 16.66,-110.38c-0.09,-9.93 -6,-53.07 -4.17,-85.05a90.36,90.36 0 0 1 9.51,-34.9l46.58,0z"/>
   <path id="svg_129" fill="#263238" d="m136.16,421.67c-7.15,-0.12 -5.1,-0.19 -12.25,-0.23c-3.5,0 -26.49,-0.12 -29.76,0.44a0.07,0.07 0 0 0 0,0.14c3.27,0.53 26.26,0.23 29.76,0.18c7.15,-0.1 5.1,-0.15 12.25,-0.33a0.1,0.1 0 0 0 0,-0.2z"/>
   <path id="svg_130" fill="#263238" d="m115.75,202.69c-5.92,11.38 -8.13,24.33 -8.61,37c-0.52,13.79 1.13,27.54 2.58,41.23c1.53,14.39 2.85,28.81 1.75,43.28s-3.7,29.13 -5.8,43.63s-4.3,29 -6.1,43.54c-0.23,1.84 -0.46,3.68 -0.67,5.52c0,0.1 0.13,0.14 0.14,0c2.57,-14.33 4.68,-28.74 6.87,-43.13s4.64,-28.67 6.12,-43.09s0.86,-28.73 -0.59,-43.11c-1.39,-13.85 -3.22,-27.69 -3.27,-41.63c0,-13 1.27,-26.23 5.86,-38.45c0.61,-1.62 1.27,-3.24 2,-4.84c0.05,-0.18 -0.16,-0.19 -0.28,0.05z"/>
   <path id="svg_131" fill="#263238" d="m155.09,236.38a86.47,86.47 0 0 0 -13.38,7a0.15,0.15 0 0 0 0.14,0.27c4.51,-2.19 9.12,-4.3 13.51,-6.74a0.3,0.3 0 0 0 -0.27,-0.53z"/>
   <path id="svg_132" fill="#263238" d="m155.35,220.28c-0.31,1.66 -0.71,3.31 -1.07,5s-0.59,3.13 -1,4.67a8,8 0 0 1 -2.17,3.91c-0.61,0.56 -1.28,1.07 -1.93,1.58c-0.35,0.28 -0.73,0.55 -1.09,0.83c0,-0.22 0.08,-0.44 0.12,-0.67c0.12,-0.63 0.22,-1.26 0.33,-1.89c0.23,-1.4 0.46,-2.8 0.67,-4.21c0.42,-2.76 0.81,-5.55 1.39,-8.28c0,-0.11 -0.15,-0.15 -0.17,0c-0.69,2.71 -1.45,5.38 -2.05,8.12c-0.29,1.34 -1.34,8 -1.39,8.42s-0.09,1 -0.1,1.45a5.24,5.24 0 0 0 0,1.48c0,0.12 0.17,0.1 0.22,0l0,0a5.83,5.83 0 0 0 0.42,-1.44c0.12,-0.47 0.23,-0.95 0.31,-1.43c0,-0.17 0.06,-0.35 0.08,-0.53c0.65,-0.39 1.26,-0.92 1.87,-1.36s1.32,-0.94 1.94,-1.46a7.51,7.51 0 0 0 2.38,-3.71a27.21,27.21 0 0 0 0.78,-4.75c0.21,-1.88 0.36,-3.77 0.62,-5.64c0.03,-0.16 -0.14,-0.21 -0.16,-0.09z"/>
   <path id="svg_133" fill="#ad6359" d="m152.21,146c0.6,7.78 5.21,26.1 15.51,42.36c4,6.27 20,14.55 33.1,19.91a106.92,106.92 0 0 0 14.91,5.11l0,0a14.33,14.33 0 0 0 1.57,0.28c6.25,0.75 10.56,-8.7 11.25,-15.77c0,-0.19 0,-0.39 0,-0.58l0,-0.31c0.16,-2.89 -0.33,-5.25 -1.59,-6.17a14.33,14.33 0 0 0 -1.39,-0.86a127.71,127.71 0 0 0 -11.57,-5.25c-1.15,-0.48 -2.36,-1 -3.58,-1.46c-11.51,-4.63 -24.72,-9.6 -26,-10.8c-2,-1.85 -14.39,-16.19 -21.53,-28.55c-5.24,-9.01 -11.68,-10.84 -10.68,2.09z"/>
   <path id="svg_134" fill="#ad6359" d="m200.82,208.27a106.92,106.92 0 0 0 14.91,5.11l0,0a87.49,87.49 0 0 0 19.33,2.62c4,0 15.5,-1.19 15.74,-4.26s-3.15,-3 -3.15,-3s4.78,-1.23 4.74,-4.34c0,-2.55 -3.57,-2.84 -4.85,-2.87a0.2,0.2 0 0 0 -0.19,0l-0.27,0s4.82,-1.62 4.56,-4.72c-0.23,-2.77 -4.46,-2.15 -5.35,-2l0,0c0.74,-0.23 4.19,-1.49 3,-3.7c-1.55,-3 -9.53,0.33 -14,0.09c-0.21,0 -1.32,-0.14 -2.91,-0.33c-3.28,-2.49 -7.36,-4.8 -9.17,-5.23a59.68,59.68 0 0 0 -9.27,-0.85c-1.15,-0.48 -2.36,-1 -3.58,-1.46c-2.47,2.72 -9.88,12.1 -9.54,24.94z"/>
   <path id="svg_135" fill="#ad6359" d="m215,188.62l-0.94,13.45l0,0.05l0,0.3l-0.72,10.2a18.39,18.39 0 0 0 2.38,0.76l0,0a87.49,87.49 0 0 0 19.34,2.62c4,0 15.5,-1.19 15.74,-4.26s-3.15,-3 -3.15,-3s4.78,-1.23 4.74,-4.34c0,-2.55 -3.57,-2.84 -4.85,-2.87l-0.46,0s4.82,-1.62 4.56,-4.72c-0.23,-2.77 -4.46,-2.15 -5.35,-2l-0.12,0l0.09,0c0.74,-0.23 4.19,-1.49 3,-3.7c-1.55,-3 -9.53,0.33 -14,0.09c-0.21,0 -1.32,-0.14 -2.91,-0.33l-6.77,-0.83l-10.58,-1.42z"/>
   <path id="svg_136" fill="#263238" d="m231,196.29a34.78,34.78 0 0 0 5.63,1.17a14.34,14.34 0 0 0 9.57,-2.44c0.16,-0.09 0.18,-0.2 0.13,-0.26l0,0a0.27,0.27 0 0 0 -0.23,0a21.81,21.81 0 0 1 -8.93,2a36.45,36.45 0 0 1 -6.09,-0.68c-0.19,0 -0.25,0.18 -0.08,0.21z"/>
   <path id="svg_137" fill="#263238" d="m231.22,203c6.36,1.19 10.12,1.6 16.17,-1.2c0.19,-0.08 0.24,-0.25 0.15,-0.32a0.2,0.2 0 0 0 -0.19,0l0,0c-6.3,1.95 -9.54,2 -16.06,1.36c-0.13,-0.02 -0.16,0.16 -0.07,0.16z"/>
   <path id="svg_138" fill="#263238" d="m247.12,208.82c-6.26,1.46 -9.81,1.69 -16.07,0.23a0.12,0.12 0 0 0 -0.06,0.23c6.23,2.11 10.67,1.86 16.15,-0.26c0.38,-0.15 0.37,-0.29 -0.02,-0.2z"/>
   <path id="svg_139" fill="#ad6359" d="m216.72,201.86a6.42,6.42 0 0 0 1,-0.19l0.27,-0.08l0,0c5.14,-1.66 7,-9.33 7,-9.33a30.12,30.12 0 0 0 5.29,0.77c2.57,0.14 5.18,-0.07 6.71,-1.08l0,0a3,3 0 0 0 1,-1a2.59,2.59 0 0 0 0.29,-0.71s0,0 0,-0.07c0.24,-1.42 -2.68,-3.09 -6.18,-4.43c-3.85,-1.47 -8.41,-2.54 -10.27,-2.44a61,61 0 0 0 -9.13,1.79c-1.27,0.33 -2.11,0.57 -2.11,0.57s0.04,16.89 6.13,16.2z"/>
   <path id="svg_140" fill="#263238" d="m237.68,191.17c-3.4,2.9 -8.6,1.31 -12.57,0.69c-0.3,-0.05 -0.44,0.17 -0.43,0.41c-1.16,3.68 -3.87,8.54 -7.76,9.75a0.09,0.09 0 0 0 0,0.18c4.35,-0.73 7.4,-5.29 8.41,-9.4c4.06,0.71 9.34,2.07 12.34,-1.6a0,0 0 0 0 0.01,-0.03z"/>
   <path id="svg_141" fill="#FCD34D" d="m156.64,169.71l24.84,-2.79s-15.39,-22.78 -21.8,-28.2c-7.22,-6.1 -8.76,-1.08 -8.09,7.89s5.05,23.1 5.05,23.1z"/>
   <path id="svg_142" opacity="0.1" d="m156.64,169.71l24.84,-2.79s-15.39,-22.78 -21.8,-28.2c-7.22,-6.1 -8.76,-1.08 -8.09,7.89s5.05,23.1 5.05,23.1z"/>
   <path id="svg_143" fill="#263238" d="m176.71,162.49c-3.21,0 -12.85,1.26 -14.45,1.46c-0.84,0.1 -4.18,0.66 -5,0.76c-0.1,0 -0.07,0.17 0,0.16c1.6,-0.18 3.23,-0.2 4.84,-0.37s11.46,-1.13 14.61,-1.88a0.07,0.07 0 0 0 0,-0.13z"/>
   <path id="svg_144" fill="#263238" d="m170,168.21l-13.31,1.49s-4.37,-14.13 -5,-23.1c-0.49,-6.51 0.19,-10.95 3.38,-10.53l14.93,32.14z"/>
   <path id="svg_145" fill="#FCD34D" d="m104.65,218.19c0.14,0.19 64.45,6.77 65.14,6.13c1,-0.9 -5.16,-76.2 -11.26,-86c-1.3,-2.1 -11.73,-5 -16.36,-1.74c-14.87,10.42 -38.02,80.91 -37.52,81.61z"/>
   <rect id="svg_146" transform="rotate(5.65 16.64 -13.67)" opacity="0.1" height="1.99" width="12.27" y="147.02" x="157.27"/>
   <path id="svg_147" fill="#FCD34D" d="m196.09,173.09c-0.33,0.46 -8,14.76 -8.32,16.38s-11,40.91 -10.39,42.08s17.37,7.78 18.11,7.78s34,-7.41 35.79,-8.66s2.44,-31.89 1.77,-35s-2.68,-8.81 -2.68,-8.81l1.24,-1.72s-3.42,-14.44 -4.07,-13.94s-30.73,0.88 -31.45,1.89z"/>
   <path id="svg_148" opacity="0.1" d="m195.48,239.34c-0.73,0 -17.47,-6.62 -18.1,-7.79s10.12,-40.45 10.39,-42.07s8,-15.92 8.32,-16.39c1.43,3 2.6,16.2 2.78,17.91s-3.06,44.81 -3.39,48.34z"/>
   <path id="svg_149" opacity="0.1" d="m230.37,186.83c-2.54,0.4 -5.1,0.64 -7.66,0.89s-5.13,0.46 -7.69,0.63s-5.13,0.33 -7.7,0.46s-5.14,0.2 -7.71,0.29l0,0a0.86,0.86 0 0 1 -0.62,-0.48a2.63,2.63 0 0 1 -0.24,-0.58a7.83,7.83 0 0 1 -0.28,-1.16a16.61,16.61 0 0 1 -0.26,-2.33c0.15,0.77 0.31,1.53 0.52,2.27a7.76,7.76 0 0 0 0.37,1.09c0.13,0.32 0.4,0.7 0.52,0.69l0,0c2.56,-0.22 5.12,-0.49 7.68,-0.68s5.13,-0.37 7.7,-0.51s5.13,-0.28 7.7,-0.36s5.1,-0.16 7.67,-0.22z"/>
   <polygon id="svg_150" fill="#fff" points="222.12 192.61 217.35 192.66 214.26 183.22 219.03 183.18 222.12 192.61"/>
   <g id="svg_151" opacity="0.1">
    <path id="svg_152" d="m195.62,176.43c-0.59,4.32 -1.28,8.62 -2,12.91s-1.49,8.58 -2.24,12.87s-1.6,8.55 -2.46,12.82l-1.3,6.4c-0.48,2.13 -0.91,4.26 -1.41,6.38c0.28,-2.16 0.63,-4.31 0.94,-6.46l1,-6.45c0.71,-4.3 1.5,-8.58 2.24,-12.87s1.6,-8.55 2.46,-12.82s1.79,-8.54 2.77,-12.78z"/>
    <path id="svg_153" d="m178.78,230.89c2.36,-1.3 4.8,-2.44 7.26,-3.51l0.3,-0.13l0.23,0.26c1.34,1.52 2.66,3.06 3.94,4.65s2.5,3.21 3.65,4.89c-1.5,-1.39 -2.92,-2.85 -4.29,-4.34s-2.7,-3 -4,-4.6l0.53,0.13c-2.5,0.99 -5.03,1.9 -7.62,2.65z"/>
   </g>
   <path id="svg_154" fill="#ad6359" d="m136.06,144.28c-6,16.19 -17.25,56.68 -9,61.85c13.64,8.49 41.4,11.07 49.79,11c3.62,0 7.89,-27.82 4.15,-28.83c-4.49,-1.21 -33.31,-2.1 -33.88,-4.4c-0.32,-1.31 0.64,-14.5 -1,-29.06c-1.88,-16.91 -8.01,-16.1 -10.06,-10.56z"/>
   <path id="svg_155" fill="#ad6359" d="m168.68,190.37s9.17,-6.1 15.36,-9.81c3.45,-2.07 9.68,-5.09 12.91,-5.45c4.83,-0.53 25.38,0.3 25.28,5.29c-0.08,4.51 -17.65,1.55 -17.65,1.55s18,1.42 16.89,6.84s-20.51,-0.57 -20.51,-0.57s18.45,1.87 16.43,7.28c-1.53,4.08 -19.4,-0.34 -19.4,-0.34s15.84,1.72 14.45,6c-1.53,4.72 -18.29,1.67 -18.29,1.67c-5.36,10.25 -11.86,13.55 -17.13,14.29c-1.25,0.15 -8.34,-26.75 -8.34,-26.75z"/>
   <path id="svg_156" fill="#263238" d="m198.39,181.06c2.12,0.09 4.27,0.17 6.37,0.45s4.2,0.63 6.27,1.1a35.7,35.7 0 0 1 7.87,2.61c-4.62,-1.75 -12.13,-2.86 -14.23,-3.14s-4.19,-0.66 -6.29,-0.94c-0.05,0 -0.04,-0.08 0.01,-0.08z"/>
   <path id="svg_157" fill="#263238" d="m197.25,188.64c2.7,0.23 5.39,0.36 8.08,0.72s5.19,0.91 7.84,1.45c0.2,0 0.11,0.13 -0.09,0.1c-2.67,-0.43 -5.17,-0.62 -7.84,-1s-5.33,-0.9 -8,-1.2c-0.04,-0.01 -0.03,-0.07 0.01,-0.07z"/>
   <path id="svg_158" fill="#263238" d="m195.1,195a60,60 0 0 1 12.27,2c0.2,0.05 0.08,0.16 -0.13,0.12c-4.07,-0.76 -7.25,-1.38 -12.14,-2c-0.1,-0.02 -0.1,-0.12 0,-0.12z"/>
   <path id="svg_159" fill="#263238" d="m192.52,176.21c-4,0.92 -17.81,9.58 -19.33,10.93c-1.1,-0.12 -5.84,-0.4 -6.37,-0.32a0.1,0.1 0 0 0 0,0.19c0.5,0.19 5.21,0.87 6.32,1c0.19,0 16.17,-10 19.63,-11.65c0.12,-0.09 -0.11,-0.18 -0.25,-0.15z"/>
   <path id="svg_160" fill="#FCD34D" d="m148.87,171.69l-24.32,5.77s6.79,-26.64 11,-33.91c4.74,-8.18 7.89,-4 10.28,4.69s3.04,23.45 3.04,23.45z"/>
   <path id="svg_161" opacity="0.1" d="m148.87,171.69l-24.32,5.77s6.79,-26.64 11,-33.91c4.74,-8.18 7.89,-4 10.28,4.69s3.04,23.45 3.04,23.45z"/>
   <path id="svg_162" fill="#263238" d="m147,167.49c-3.19,0.32 -12.65,2.62 -14.21,3c-0.83,0.19 -4.09,1.1 -4.91,1.29c-0.11,0 0,0.18 0.05,0.16c1.58,-0.36 3.19,-0.55 4.77,-0.89s11.3,-2.35 14.3,-3.43a0.07,0.07 0 0 0 0,-0.13z"/>
   <path id="svg_163" fill="#263238" d="m131.5,153.83c0,-0.11 -0.14,-0.14 -0.17,0c-0.83,2.18 -1.61,4.39 -2.35,6.61a20.45,20.45 0 0 1 0.66,-3.61s-0.06,-0.07 -0.08,0a16.76,16.76 0 0 0 -0.76,4.17c-0.51,1.54 -1,3.1 -1.48,4.65c-1.22,4 -2.49,7.92 -3.48,11.95a0.29,0.29 0 0 0 0.36,0.34c0.84,-0.23 1.66,-0.48 2.49,-0.77c0.08,0 0.07,-0.17 0,-0.16c-0.72,0.08 -1.42,0.19 -2.13,0.31c1.28,-3.79 2.36,-7.65 3.53,-11.48s2.36,-8 3.41,-12.01z"/>
   <path id="svg_164" fill="#263238" d="m148.42,161c0,-1.32 0.05,-2.64 0,-4c0,0 0,0 -0.05,0q-0.07,1.45 -0.12,2.91c-0.25,-1.92 -0.53,-3.84 -0.9,-5.73c0,0 -0.06,0 0,0c0.13,2.93 0.43,5.85 0.64,8.77s0.45,5.73 0.71,8.6c-0.54,0.22 -1.07,0.42 -1.62,0.62a0.08,0.08 0 0 0 0.05,0.16c0.62,-0.11 1.24,-0.23 1.87,-0.32a0.29,0.29 0 0 0 0.27,-0.28c-0.15,-3.57 -0.42,-7.18 -0.85,-10.73z"/>
   <path id="svg_165" fill="#ad6359" d="m153.65,147c-2.28,0.12 -8.48,-4.65 -10.54,-9.34c-0.14,-0.33 2.21,-12.5 2.42,-15c0,-0.5 15.1,5.1 15.1,5.1a39.51,39.51 0 0 0 -2.31,9.31a4.91,4.91 0 0 0 0,1a1,1 0 0 1 0,0.17c0.17,1.96 -1.32,8.55 -4.67,8.76z"/>
   <path id="svg_166" fill="#263238" d="m146.52,122.82c0.25,3.78 1.72,14.44 10.23,15.38a9.68,9.68 0 0 0 1.59,0.05a0.91,0.91 0 0 0 0,-0.17a6.89,6.89 0 0 1 0,-1a39.66,39.66 0 0 1 2.31,-9.32s-10.77,-4.01 -14.13,-4.94z"/>
   <path id="svg_167" fill="#ad6359" d="m147.17,101.87c-2.81,5 -3.35,21.13 -0.28,25.42c4.44,6.21 13.39,8.66 19.1,2.94c5.53,-5.55 5.86,-26.57 2.28,-30.64c-5.27,-5.99 -16.96,-5.12 -21.1,2.28z"/>
   <path id="svg_168" fill="#263238" d="m160,114.5s-0.08,0 -0.08,0.1c0,1.08 -0.2,2.33 -1.2,2.65a0,0 0 0 0 0,0.06c1.18,-0.12 1.42,-1.78 1.28,-2.81z"/>
   <path id="svg_169" fill="#263238" d="m159.05,113.33c-1.74,-0.2 -2,3.3 -0.4,3.48s1.86,-3.31 0.4,-3.48z"/>
   <path id="svg_170" fill="#263238" d="m166.23,115.17s0.08,0 0.07,0.1c-0.11,1.08 -0.07,2.34 0.88,2.77c0,0 0,0.07 0,0.06c-1.18,-0.26 -1.24,-1.93 -0.95,-2.93z"/>
   <path id="svg_171" fill="#263238" d="m167.28,114.11c1.75,0 1.62,3.51 0,3.5s-1.47,-3.5 0,-3.5z"/>
   <path id="svg_172" fill="#263238" d="m157.79,111.63a13,13 0 0 0 1.39,-0.38a2.29,2.29 0 0 0 1.35,-0.65a0.74,0.74 0 0 0 -0.05,-0.9a1.85,1.85 0 0 0 -1.83,-0.33a2.68,2.68 0 0 0 -1.65,1a0.8,0.8 0 0 0 0.79,1.26z"/>
   <path id="svg_173" fill="#263238" d="m168.77,112.45a12.79,12.79 0 0 1 -1.36,-0.46a2.35,2.35 0 0 1 -1.3,-0.75a0.74,0.74 0 0 1 0.11,-0.89a1.85,1.85 0 0 1 1.86,-0.21a2.73,2.73 0 0 1 1.56,1.16a0.79,0.79 0 0 1 -0.87,1.15z"/>
   <path id="svg_174" fill="#263238" d="m158.19,124.48c0.24,0.27 0.47,0.64 0.86,0.7a2.85,2.85 0 0 0 1.19,-0.18s0.07,0 0,0.06a1.46,1.46 0 0 1 -1.42,0.48a1.17,1.17 0 0 1 -0.78,-1c0.03,-0.09 0.12,-0.1 0.15,-0.06z"/>
   <path id="svg_175" fill="#263238" d="m159.58,121.32a3.69,3.69 0 0 0 2.33,1.83a5,5 0 0 0 1.33,0.17l0.25,0l0.24,0a0.28,0.28 0 0 0 0.24,-0.23l0,0l0,-0.12l0,0l0,-0.1c0.09,-0.83 0.11,-2.1 0.11,-2.1c0.29,0.17 1.79,1 1.8,0.55a55.34,55.34 0 0 0 -0.57,-11.27c0,-0.12 -0.2,-0.1 -0.2,0c-0.2,3.48 0.22,7 0.07,10.47a6.83,6.83 0 0 0 -1.7,-0.66c-0.12,0 0,2.46 -0.06,2.83a0.1,0.1 0 0 1 0,0a5.11,5.11 0 0 1 -3.72,-1.48c-0.09,-0.05 -0.18,0.02 -0.12,0.11z"/>
   <path id="svg_176" fill="#263238" d="m162.78,122.86a4.4,4.4 0 0 1 -1.86,1.22a2,2 0 0 1 -1.2,0c-0.85,-0.29 -0.81,-1.09 -0.6,-1.76a5.13,5.13 0 0 1 0.47,-1a5.72,5.72 0 0 0 3.19,1.54z"/>
   <path id="svg_177" fill="#ff9abb" d="m160.92,124.08a2,2 0 0 1 -1.2,0c-0.85,-0.29 -0.81,-1.09 -0.6,-1.76a2,2 0 0 1 1.8,1.76z"/>
   <path id="svg_178" fill="#263238" d="m145.19,116.57c3,-0.37 5.88,-9.66 5.88,-9.66s-0.65,4 0.12,4s4.72,-5 5.69,-8.86a31,31 0 0 0 6.64,4.62c3.43,1.64 7.06,1.91 7,1.29c0,-1.91 -0.34,-6.66 -1.55,-8.11a13.73,13.73 0 0 0 -13.35,-4.23c-6.22,1.34 -8.34,4.87 -9.67,7.66s-1.85,13.42 -0.76,13.29z"/>
   <path id="svg_179" fill="#FCD34D" d="m170.61,103.77c-1.46,-0.59 -9.94,-1.6 -14,-0.53s-11.59,5.52 -12,5.75s0,-13.94 11.62,-14.8c12.77,-0.93 14.38,9.58 14.38,9.58z"/>
   <path id="svg_180" fill="#FCD34D" d="m145.39,108.52s8.93,-8.73 13.41,-10.36s14,-1.52 19.32,1.87c4.19,2.64 -7.6,6.77 -7.6,6.77a3.17,3.17 0 0 0 -1.42,-2.43c-2.64,-1.52 -8.07,-1.46 -11.25,-0.89c-4,0.71 -12.46,5.04 -12.46,5.04z"/>
   <path id="svg_181" opacity="0.2" d="m145.39,108.52s8.93,-8.73 13.41,-10.36s14,-1.52 19.32,1.87c4.19,2.64 -7.6,6.77 -7.6,6.77a3.17,3.17 0 0 0 -1.42,-2.43c-2.64,-1.52 -8.07,-1.46 -11.25,-0.89c-4,0.71 -12.46,5.04 -12.46,5.04z"/>
   <path id="svg_182" fill="#FCD34D" d="m157.06,120.85a4.87,4.87 0 1 1 6,-4.84l0,0a4.87,4.87 0 0 1 -4.78,5a4.75,4.75 0 0 1 -1.22,-0.16zm2.07,-8.86a4.07,4.07 0 0 0 -1,-0.11a4.22,4.22 0 1 0 1,0.11z"/>
   <path id="svg_183" fill="#FCD34D" d="m168.18,122.05c-1.81,-0.42 -3,-2.67 -2.74,-5.19a5.78,5.78 0 0 1 1.41,-3.28a3,3 0 0 1 5.17,0.59a5.9,5.9 0 0 1 0.64,3.5c-0.31,2.67 -2.17,4.66 -4.16,4.44a1.8,1.8 0 0 1 -0.32,-0.06zm1.59,-8.94a1,1 0 0 0 -0.25,0a2.58,2.58 0 0 0 -2.19,1a5.22,5.22 0 0 0 -1.24,2.91c-0.26,2.31 0.84,4.35 2.48,4.53s3.17,-1.55 3.44,-3.86a5.16,5.16 0 0 0 -0.56,-3.11a2.67,2.67 0 0 0 -1.68,-1.47z"/>
   <path id="svg_184" fill="#FCD34D" d="m162.82,116.55l-0.36,-0.54c0.8,-0.54 2.6,-1.17 3.63,0.23l-0.52,0.39c-0.93,-1.26 -2.68,-0.13 -2.75,-0.08z"/>
   <path id="svg_185" fill="#FCD34D" d="m141.08,115.35l-0.54,-0.36c0.17,-0.25 1.7,-2.47 3.17,-2.54s10,1.73 10.33,1.81l-0.13,0.64c-2.46,-0.52 -9.1,-1.85 -10.17,-1.8s-2.25,1.64 -2.66,2.25z"/>
   <path id="svg_186" fill="#ad6359" d="m147.73,115.23s-2.53,-5.73 -5.06,-4.92s-1.32,8.62 1.17,10.15a2.78,2.78 0 0 0 3.94,-0.75l-0.05,-4.48z"/>
   <path id="svg_187" fill="#263238" d="m143.08,112.54a0,0 0 0 0 0,0.07c1.73,1.13 2.37,3.07 2.71,5a1.54,1.54 0 0 0 -2.17,-0.85c-0.06,0 0,0.11 0,0.11a1.7,1.7 0 0 1 1.73,1a8.2,8.2 0 0 1 0.59,1.66c0.06,0.19 0.38,0.16 0.35,0l0,0c0.52,-2.53 -0.69,-6.24 -3.21,-6.99z"/>
  </g>
  <g id="freepik--Motorcycle--inject-63">
   <path id="svg_188" fill="#37474f" d="m408.19,383.49c31.09,0 49.09,21.59 49.09,47s-16.68,46.51 -47,46.51c-33.55,0 -49.57,-26.68 -49.57,-46.74s16.02,-46.77 47.48,-46.77z"/>
   <path id="svg_189" fill="#263238" d="m403.41,383.49c29.55,0 46.67,21.59 46.67,47s-15.86,46.51 -44.68,46.51c-31.89,0 -47.12,-26.68 -47.12,-46.74s15.23,-46.77 45.13,-46.77z"/>
   <path id="svg_190" fill="#c7c7c7" d="m403.71,401.74c18,0 28.44,13.16 28.44,28.64s-9.66,28.33 -27.23,28.33c-19.43,0 -28.71,-16.26 -28.71,-28.49s9.28,-28.48 27.5,-28.48z"/>
   <path id="svg_191" fill="#37474f" d="m182.93,460c38.34,0 51.11,-20.15 51.11,-44.42s-17.82,-44.92 -52.64,-44.92c22.73,0 35.89,20.63 35.89,44.92s-12.2,44.42 -34.36,44.42z"/>
   <path id="svg_192" fill="#263238" d="m181.4,370.69c22.73,0 35.89,20.64 35.89,44.91s-12.19,44.4 -34.36,44.4c-24.53,0 -36.24,-25.5 -36.24,-44.67s11.71,-44.64 34.71,-44.64z"/>
   <path id="svg_193" fill="#263238" d="m163.45,415.36c0,18.53 -4.71,43 17.13,44.59l0.77,0l0.65,0l0.93,0c22.16,0 34.36,-20.15 34.36,-44.42s-13.16,-44.92 -35.89,-44.92l-1.22,0l-0.56,0c-0.35,0 -0.71,0.05 -1.06,0.08c-19.72,2.2 -15.11,26.31 -15.11,44.67z"/>
   <path id="svg_194" fill="#c7c7c7" d="m179.78,388.14c12.63,0 19.95,12.58 19.95,27.37s-6.78,27.07 -19.1,27.07c-13.64,0 -20.15,-15.54 -20.15,-27.22s6.52,-27.22 19.3,-27.22z"/>
   <polygon id="svg_195" fill="#FCD34D" points="357.9 277.34 345.67 277.34 337.29 265.04 351.62 265.04 357.9 277.34"/>
   <polygon id="svg_196" fill="#FCD34D" points="337.29 265.04 342.2 272.24 345.67 277.34 357.9 277.34 354.59 270.86 351.61 265.04 337.29 265.04"/>
   <polygon id="svg_197" opacity="0.1" points="337.29 265.04 342.2 272.24 354.59 270.86 351.61 265.04 337.29 265.04"/>
   <polygon id="svg_198" fill="#FCD34D" points="387.62 369.13 375.71 371.87 364.79 361.75 378.75 358.55 387.62 369.13"/>
   <polygon id="svg_199" fill="#FCD34D" points="364.79 361.75 371.18 367.67 375.7 371.87 387.63 369.13 382.95 363.56 378.75 358.55 364.79 361.75"/>
   <polygon id="svg_200" opacity="0.1" points="364.79 361.75 371.18 367.67 382.95 363.56 378.75 358.55 364.79 361.75"/>
   <path id="svg_201" fill="#455a64" d="m211.36,405.44l3.42,7.57s92.47,7.07 101.25,5.76a130.82,130.82 0 0 0 18.41,-28.47l-41.83,0a40.52,40.52 0 0 1 -18,-4l-5.4,-0.9l-9.73,4.86l-10.63,15.14l-29.55,-0.54l-7.94,0.58z"/>
   <path id="svg_202" fill="#37474f" d="m259.46,390.3s23.68,14.56 69.84,9.62c1.71,-2.92 3.45,-6.13 5.14,-9.62l-41.83,0a40.52,40.52 0 0 1 -18,-4l-5.4,-0.9l-9.75,4.9z"/>
   <path id="svg_203" fill="#FCD34D" d="m454.58,389.49l-11.58,6.08s-33.51,-6.08 -55,-1.48s-27.29,16.08 -27.29,16.08l-10.85,0s9.32,-33.11 25.14,-45.17s41.22,-9.32 55.27,-1.75s24.31,26.24 24.31,26.24z"/>
   <path id="svg_204" opacity="0.1" d="m441.79,393.28a58.89,58.89 0 0 0 -7.26,-6.44a65.69,65.69 0 0 0 -8.12,-5.39a49.77,49.77 0 0 0 -17.78,-5.83c-12.22,-1.5 -25,2.06 -34,11.45c-5.06,5.32 -8.66,11.84 -12.08,18.44c0,0.1 0.09,0.18 0.14,0.08a72.7,72.7 0 0 1 10.88,-16a39,39 0 0 1 15.13,-10.2c11.53,-4.23 24.05,-2.61 35.09,2.5a72.16,72.16 0 0 1 9.15,5c3,2 5.84,4.23 8.65,6.5a0.12,0.12 0 0 0 0.2,-0.11z"/>
   <path id="svg_205" fill="#FCD34D" d="m281.89,326.52l0,-4.09l-104.59,3.37l0,9.2s-30.3,33.45 -33.3,68.22l104.88,2.22l10.63,-15.14l9.73,-4.86l5.4,0.9l0,-2.34l-4.14,-4.87l-0.18,-14.42a20.41,20.41 0 0 1 -3.51,-15.4c1.12,-7.7 15.08,-22.79 15.08,-22.79z"/>
   <path id="svg_206" fill="#FCD34D" d="m239.06,400.57c-1.09,2 -17,4.87 -47.16,5.68c-27.15,0.73 -47.43,0.13 -49.05,-1.62s2.43,-32.7 20.81,-49.46s44.45,-19.17 61.61,-9.17c15.09,8.77 26.35,31.06 13.79,54.57z"/>
   <path id="svg_207" opacity="0.1" d="m244.18,371.27a38.5,38.5 0 0 0 -10.7,-19.27a42.91,42.91 0 0 0 -19.48,-11.19a49.48,49.48 0 0 0 -25,0.27a55.91,55.91 0 0 0 -11.79,4.57a66.26,66.26 0 0 0 -11.12,7.53c-0.92,0.76 -1.85,1.52 -2.76,2.3c-0.08,0.06 0,0.17 0.12,0.11a71.6,71.6 0 0 1 11.19,-8.07a55.9,55.9 0 0 1 11.49,-4.95a50.26,50.26 0 0 1 24.53,-1.38a41.63,41.63 0 0 1 19.79,10a39.71,39.71 0 0 1 11.42,17.95c2.5,8.42 1.68,17.69 -0.81,26c-0.33,1.12 -0.68,2.22 -1.06,3.32c0,0.12 0.14,0.16 0.18,0.05c3.37,-8.63 5.88,-17.93 4,-27.24z"/>
   <path id="svg_208" opacity="0.1" d="m259.46,390.3l9.73,-4.86l5.4,0.9l0,-2.34l-4.14,-4.86l-0.18,-14.41a20.36,20.36 0 0 1 -3.51,-15.4c1.17,-7.71 15.13,-22.8 15.13,-22.8l-4.05,0s-22,11.35 -27,20.72s-6.51,31.34 8.62,43.05z"/>
   <path id="svg_209" fill="#dbdbdb" d="m171.49,409.44c-18.22,0 -27.86,-0.56 -32.75,-2.5l2.27,-5.71c5.72,2.27 23.63,2.23 52.45,1.9c21.29,-0.25 37,-2.26 46.8,-6l2.19,5.74c-10.6,4 -26.6,6.12 -48.92,6.38c-8.47,0.12 -15.77,0.19 -22.04,0.19z"/>
   <path id="svg_210" fill="#263238" d="m314.64,270.72c-0.18,0.41 -24.33,4.86 -24.33,4.86s-4,-2.7 -1.53,-6.12l24.22,-5.23a5.62,5.62 0 0 1 1.64,6.49z"/>
   <path id="svg_211" fill="#FCD34D" d="m365.33,239.5l0,28.65s-15.47,-1.35 -19.59,-1.49s-22.43,2.23 -22.43,2.23l-1.42,-6.42s14.11,-4.93 20.11,-8.78s12.91,-11.21 16.62,-12.84a15,15 0 0 1 6.71,-1.35z"/>
   <path id="svg_212" fill="#dbdbdb" d="m323.37,261.66a8.74,8.74 0 0 1 2.4,7.23s-11.53,2.11 -11.67,2.11a6.55,6.55 0 0 0 -4,-6.48l13.27,-2.86z"/>
   <ellipse id="svg_213" fill="#dbdbdb" ry="14.32" rx="7.58" cy="253.83" cx="365.48"/>
   <path id="svg_214" fill="#fff" d="m359.46,253.83c0,7 2.91,12.77 6.49,12.77s6.49,-5.72 6.49,-12.77s-2.91,-12.78 -6.49,-12.78s-6.49,5.72 -6.49,12.78z"/>
   <path id="svg_215" fill="#37474f" d="m281.89,322.43s0.19,-17.47 -0.49,-18.15s-104.77,-0.32 -107.88,0s-2.84,20.67 -2.57,21.62s108.24,-3.24 110.94,-3.47z"/>
   <path id="svg_216" fill="#455a64" d="m291.13,304.46c-0.31,-0.27 -13.51,-0.33 -14.23,-0.33s-0.46,18.62 0,18.59s14.32,-0.11 14.77,-0.52s0.14,-17.15 -0.54,-17.74z"/>
   <path id="svg_217" fill="#455a64" d="m218.2,303.46a1.89,1.89 0 0 0 -0.67,1.12a9.57,9.57 0 0 0 -0.22,1.32c-0.11,0.89 -0.14,1.79 -0.18,2.69c0,1.8 0,3.61 0,5.42s0,3.62 0.11,5.42a16.67,16.67 0 0 0 0.31,2.65a4.32,4.32 0 0 0 0.42,1.24a1.38,1.38 0 0 0 1,0.77a1.41,1.41 0 0 1 -1.22,-0.62a4.57,4.57 0 0 1 -0.67,-1.25a13.48,13.48 0 0 1 -0.63,-2.71a42.29,42.29 0 0 1 -0.33,-5.5a45.81,45.81 0 0 1 0.27,-5.48a19.5,19.5 0 0 1 0.48,-2.73a9,9 0 0 1 0.46,-1.32a1.78,1.78 0 0 1 0.87,-1.02z"/>
   <rect id="svg_218" transform="rotate(180 429.22 546.03)" fill="#37474f" height="62.16" width="99.99" y="787.96003" x="593.83"/>
   <polygon id="svg_220" fill="#37474f" points="288.99 194.28 257.85 194.28 233.47 241.94 264.61 241.94 288.99 194.28"/>
   <polygon id="svg_221" fill="#263238" points="261.22 194.28 257.85 194.28 233.47 241.94 236.84 241.94 261.22 194.28"/>
   <rect id="svg_222" fill="#FCD34D" height="62.19" width="6.19" y="241.93" x="172.67"/>
   <rect id="svg_223" fill="#FCD34D" height="62.19" width="6.19" y="241.93" x="218.16"/>
   <path id="svg_234" fill="#FCD34D" d="m367.92,277.34c2.52,3.69 12.61,53.87 14.59,56.39s5.77,2.7 5.77,2.7l6.72,16.57s-16.57,5.23 -25.77,12.79c-11.94,9.78 -22.93,42.21 -22.93,42.21c-1.8,1.26 -24.14,10.45 -30.27,10.81c0,0 28.49,-31.28 30.81,-74.57c0.9,-16.78 -9.41,-40.39 -10.09,-52.09c-0.72,-12.52 3.06,-14.77 9.73,-14.77l21.44,-0.04z"/>
   <path id="svg_235" fill="#dbdbdb" d="m314.66,422.41l-4.46,-4.22c25,-26.46 34.22,-68.15 33.49,-79.53c-0.38,-5.84 -2.25,-12.36 -4.24,-19.26c-2.12,-7.37 -4.52,-15.72 -5.54,-24.79c-1,-8.42 0,-13.86 2.87,-17.11s6.81,-3.24 9.43,-3.24l23.79,0l0,6.15l-23.8,0c-2.29,0 -3.85,0.08 -4.84,1.19s-2.28,4 -1.34,12.33c1,8.55 3.19,16.29 5.34,23.77c2.08,7.23 4.05,14.07 4.46,20.56c0.78,12.12 -8.82,56.35 -35.16,84.15z"/>
   <path id="svg_236" fill="#dbdbdb" d="m382.63,347.46c1.4,5.15 5.81,8.44 9.86,7.34s6.18,-6.17 4.77,-11.32s-5.81,-8.45 -9.86,-7.35s-6.18,6.17 -4.77,11.33z"/>
   <path id="svg_237" fill="#fff" d="m384.13,347.05c1.26,4.6 5.07,7.56 8.53,6.62s5.24,-5.43 4,-10s-5.07,-7.56 -8.52,-6.62s-5.26,5.4 -4.01,10z"/>
   <path id="svg_238" opacity="0.1" d="m364.94,346.62c-1.11,-5.18 -2.31,-10.35 -3.35,-15.55s-2,-10.41 -2.81,-15.64c-0.79,-4.87 -1.64,-9.79 -1.95,-14.72c-0.31,-5.15 0,-10.35 2.5,-15a0.08,0.08 0 1 0 -0.14,-0.08c-2.57,3.75 -3.41,8.25 -3.55,12.72a86.4,86.4 0 0 0 1.3,14.71a315.87,315.87 0 0 0 6,31.69c1.45,5.91 3.32,11.72 5.32,17.46a0.07,0.07 0 0 0 0.14,-0.05q-1.79,-7.74 -3.46,-15.54z"/>
  </g>
 </g>
</svg>